<?xml version="1.0" standalone="no"?>
<!DOCTYPE svg PUBLIC "-//W3C//DTD SVG 1.1//EN" "http://www.w3.org/Graphics/SVG/1.1/DTD/svg11.dtd" >
<!--
2013-9-30: Created.
-->
<svg>
<metadata>
Created by iconfont
</metadata>
<defs>

<font id="iconfont" horiz-adv-x="1024" >
  <font-face
    font-family="iconfont"
    font-weight="500"
    font-stretch="normal"
    units-per-em="1024"
    ascent="896"
    descent="-128"
  />
    <missing-glyph />
    
    <glyph glyph-name="apollo-time" unicode="&#42611;" d="M882.90489179 569.4082594199999H538.688891v81.30390723c0 14.75842628-19.08874354 33.58204838-33.84716983 33.58204838H132.434475c-14.75842628 0-26.77726525-18.91199635-26.77726525-33.58204838v-225.97183944c0-14.75842628 12.01883894-32.07969399 26.77726525-32.07969399h53.64290342l70.61067676-76.70846855c5.21405452-5.83267163 12.54908182-7.68852171 20.06085505-7.6885217 3.18145726 0 4.68381165 1.23723295 7.77689595 2.38609293 10.42811033 3.88844733 15.5537906 14.49330484 15.55379059 25.62840525v56.29411911h53.02428761v-164.02179719c0-19.61898642 20.06085505-39.23797282 39.76821569-39.23797282h243.02798573v-107.5509296c0-14.49330484 7.24665307-27.48425531 20.76784512-32.96343255 4.33031726-1.76747583 8.13039034-2.56284013 12.63745608-2.56284015 9.45599754 0 18.38175347 1.94422431 25.27490955 9.0141289l132.03047613 134.0630734h56.38249336c19.70736065 0 35.70301989 19.61898642 35.70301988 39.23797282V526.0167165299999c0 19.70736065-15.99566052 43.39154159-35.79139413 43.39154289z m-606.15598156-123.72333861c-14.75842628 0-29.69360106-6.27454027-29.69360106-20.9445936v-18.02825778l-30.31221689 32.87505831c-5.12568157 5.7442974-10.95835321 6.18616732-18.6468749 6.18616732h-39.50309427v185.58500661h318.14572564v-61.8616693h-83.95512162c-19.70736065 0-39.7682157-23.77255519-39.76821571-43.39154159v-80.33179572h-76.26660119z m571.24832599-185.58500661h-36.4983855c-9.63274601 0-17.76313634-1.85585006-24.47954525-8.74900746l-80.42016995-81.65740291v58.94533348c0 19.61898642-18.29337922 31.46107687-38.08911284 31.46107689H423.80293537v238.60929422h424.19430085v-238.60929422z m-373.20261178 159.07286281c0 14.75842628 12.01883894 26.51214381 26.77726523 26.5121438h168.97073027c14.75842628 0 26.77726525-11.75371753 26.77726523-26.5121438s-12.01883894-26.51214381-26.77726523-26.51214379H501.57188967c-14.75842628 0-26.77726525 11.84209047-26.77726523 26.51214379z m257.16779488-18.20500498c-5.03730733 4.94893308-7.8652689 11.93046471-7.8652689 18.91199634 0 6.89315739 2.82796157 13.87468902 7.8652689 18.82362212 9.98624039 9.89786746 27.92612524 9.89786746 37.91236563 0a26.55633028 26.55633028 0 0 0 0-37.73561846c-4.94893308-4.94893308-11.84209047-7.77689595-18.91199504-7.77689594s-14.05143621 2.82796157-19.00037059 7.77689594z"  horiz-adv-x="1024" />

    
    <glyph glyph-name="apollo-comments" unicode="&#41525;" d="M860.1375879 706.9510521h-695.94377481c-18.30994891 0-33.14018016-14.83023004-33.14017895-33.14018015v-423.11724541c0-18.30994891 14.83023004-32.56022661 33.14017895-32.56022661h389.3971129v-140.84576355c0-13.9188755 10.52200748-26.3464429 23.52952723-31.15176936 3.72827022-1.40845724 8.53359669-1.98841078 12.34471655-1.9884108 9.52780208 0 19.3041543 4.39107342 25.76649057 12.01331557l137.53174516 161.97262814h107.45703325c18.30994891 0 33.14018016 14.2502777 33.14018016 32.56022661V673.81087195a33.30588065 33.30588065 0 0 1-33.22303101 33.14018015z m-33.14017894-422.53729185H737.35322192c-9.77635343 0-20.79546239-4.55677511-27.09209695-12.01331557l-90.38983987-104.80581807V250.77647738999997c0 18.30994891-11.18481067 33.72013249-29.49475959 33.7201325H197.33399325v356.25693274h629.66341571v-356.33978238z m-541.59338762 240.2663028c0 18.30994891 14.83023004 33.14018016 33.14017895 33.14018016h239.93490181c18.30994891 0 33.14018016-14.83023004 33.14018016-33.14018016s-14.83023004-33.14018016-33.14018016-33.14018016H318.54420029c-18.30994891 0-33.14018016 14.91308089-33.14017895 33.14018016z m363.79632284-25.3522375a33.33073579 33.33073579 0 0 0-9.69350258 23.36382672c0 8.78214804 3.56256973 17.31574352 9.69350258 23.44667758 6.2137837 6.2137837 14.74738039 9.69350258 23.44667758 9.69350258 8.78214804 0 17.31574352-3.47971888 23.44667636-9.69350258 6.13093285-6.13093285 9.69350258-14.74738039 9.69350258-23.44667758s-3.56256973-17.23289388-9.69350258-23.36382672c-6.2137837-6.2137837-14.74738039-9.77635343-23.44667636-9.77635344a33.75327308 33.75327308 0 0 0-23.44667758 9.77635344z"  horiz-adv-x="1024" />

    
    <glyph glyph-name="shoucang-" unicode="&#58913;" d="M512 604.58l49.49-100.28a108.767 108.767 0 0 1 81.91-59.5l110.65-16.08-80.06-78.04c-25.66-25-37.36-61.01-31.3-96.31l18.9-110.21-98.96 52.03c-15.55 8.18-33.06 12.5-50.63 12.5s-35.09-4.32-50.63-12.5l-98.97-52.03 18.9 110.2c6.06 35.31-5.64 71.31-31.29 96.31l-80.07 78.05L380.6 444.8a108.757 108.757 0 0 1 81.91 59.52L512 604.58m0 133.23c-11.41 0-22.82-5.95-28.7-17.84L393.65 538.3a32.002 32.002 0 0 0-24.09-17.51l-200.48-29.13c-26.25-3.81-36.73-36.07-17.74-54.58L296.4 295.67a32.005 32.005 0 0 0 9.2-28.32l-34.25-199.67c-3.55-20.68 12.89-37.48 31.54-37.48 4.92 0 10 1.17 14.9 3.75l179.32 94.27c4.66 2.45 9.77 3.68 14.89 3.68 5.11 0 10.23-1.23 14.89-3.68l179.32-94.27c4.9-2.58 9.98-3.75 14.9-3.75 18.64 0 35.08 16.8 31.53 37.48l-34.25 199.67a31.996 31.996 0 0 0 9.2 28.32l145.07 141.41c18.99 18.51 8.51 50.77-17.73 54.58l-200.48 29.13a32.002 32.002 0 0 0-24.09 17.51L540.7 719.97c-5.87 11.89-17.28 17.84-28.7 17.84z"  horiz-adv-x="1024" />

    
    <glyph glyph-name="l-news" unicode="&#59292;" d="M386.51767578 12.713085940000042h-0.04042969a58.9078125 58.9078125 0 0 0-26.09560547 6.13740234c-20.00390625 9.97470703-32.42285156 30.02695313-32.42988281 52.34238281V148.18066406000003c-53.15537109 26.24589844-98.06132812 63.54931641-130.73027344 108.78486328-37.31660156 51.67089844-57.04013672 111.37763672-57.04013671 172.66640625 0 44.23271484 10.08720703 87.12861328 29.98037109 127.49853516 19.0125 38.58046875 46.11357422 73.15488281 80.55 102.76347656C320.58740234 719.97070313 413.04658203 753.05625 511.0578125 753.05625c98.01210937 0 190.47128906-33.08554687 260.34609375-93.16230469 34.43730469-29.60859375 61.53925781-64.18300781 80.55-102.76347656 19.89404297-40.36992188 29.98037109-83.26582031 29.98037109-127.49853516 0-43.53662109-9.78222656-85.809375-29.07421875-125.64492187-18.44121094-38.07949219-44.77587891-72.34628906-78.2727539-101.84677734-65.24208984-57.46025391-151.30986328-91.14697266-243.35332032-95.45976563L421.66601562 24.442089839999994c-10.05996094-7.56035156-22.54746094-11.72900391-35.14833984-11.7290039z m124.54013672 675.30322265c-168.63925781 0-305.83828125-115.91103516-305.83828125-258.384375 0-98.09208984 64.37900391-186.49599609 168.01259766-230.71201171l19.7578125-8.42958985v-106.25097656l115.73349609 86.86582031 10.44580078 0.23115235c164.16650391 3.63515625 297.72597656 119.50576172 297.72597656 258.29472656 0 142.47421875-137.19814453 258.38525391-305.83740234 258.3852539zM493.4796875 466.04853516H365.85810547c-17.96044922 0-32.51953125 14.55908203-32.51953125 32.51953125s14.55908203 32.51953125 32.51953125 32.51953125h127.62158203c17.96044922 0 32.51953125-14.55908203 32.51953125-32.51953125s-14.55996094-32.51953125-32.51953125-32.51953125zM634.1046875 334.21259766000003H365.85810547c-17.96044922 0-32.51953125 14.55908203-32.51953125 32.51953125s14.55908203 32.51953125 32.51953125 32.51953125h268.24658203c17.96044922 0 32.51953125-14.55908203 32.51953125-32.51953125s-14.55996094-32.51953125-32.51953125-32.51953125z"  horiz-adv-x="1024" />

    
    <glyph glyph-name="gongnengtubiao-85" unicode="&#59085;" d="M860.22043875 344.97743835000006a32.80877795 32.80877795 0 0 0-23.11527537 9.44495122L512.24855135 671.57390981 187.39193932 354.42238956999995a33.20646011 33.20646011 0 0 0-46.89335394 0.57995354 33.20646011 33.20646011 0 0 0 0.57995233 46.89335396l347.97188741 339.76969291a33.10703957 33.10703957 0 0 0 46.3134016 0l347.97188741-339.76969291a33.20646011 33.20646011 0 0 0 0.57995355-46.89335396c-6.46233505-6.62803555-15.07878139-10.02490478-23.69522893-10.02490476z m-72.4941428-323.03390174V345.80594324000003c0 18.30994891-14.83023004 33.14018016-33.14018016 33.14017895s-33.14018016-14.83023004-33.14018015-33.14017895v-290.72222769h-103.56306133V232.30082676999996c0 24.27518126-19.71840736 43.99358862-43.99358862 43.99358862H450.60781701c-24.27518126 0-43.99358862-19.71840736-43.99358863-43.99358862v-177.21711122h-103.56306132V345.80594324000003c0 18.30994891-14.83023004 33.14018016-33.14018016 33.14017895s-33.14018016-14.83023004-33.14018015-33.14017895v-323.86240663c0-18.30994891 14.83023004-33.14018016 33.14018015-33.14018016h169.84342164c18.30994891 0 33.14018016 14.83023004 33.14017895 33.14018016V210.0140563h78.70792772v-188.07051969c0-18.30994891 14.83023004-33.14018016 33.14017894-33.14018016h169.84342164c18.22709927 0 33.14018016 14.91308089 33.14018016 33.14018016z"  horiz-adv-x="1024" />

    
    <glyph glyph-name="gongnengtubiao-109" unicode="&#59097;" d="M313.32462197 566.60239004V672.73381569c0 22.86672403 18.55850026 41.42522429 41.42522551 41.4252255s41.42522429-18.55850026 41.42522429-41.4252255v-106.13142565c0-22.86672403-18.55850026-41.42522429-41.42522429-41.42522429s-41.42522429 18.55850026-41.42522551 41.42522429z m356.25693275-41.42522429c22.86672403 0 41.42522429 18.55850026 41.4252243 41.42522429V672.73381569c0 22.86672403-18.55850026 41.42522429-41.4252243 41.4252255s-41.42522429-18.55850026-41.42522428-41.4252255v-106.13142565c0-22.86672403 18.55850026-41.42522429 41.42522428-41.42522429z m223.69621333 94.7809145v-560.31758958c0-18.30994891-14.83023004-33.14018016-33.14018015-33.14018016h-695.94377481c-18.30994891 0-33.14018016 14.83023004-33.14017895 33.14018016V619.95808025c0 18.30994891 14.83023004 36.20564597 33.14017895 36.20564597h77.46517098c18.30994891 0 33.14018016-14.83023004 33.14017895-33.14018016s-14.83023004-33.14018016-33.14017895-33.14017895h-44.32499082v-140.84576475h629.66341571v140.84576475h-44.32499083c-18.30994891 0-33.14018016 14.83023004-33.14018016 33.14017895s14.83023004 33.14018016 33.14018016 33.14018016h77.46516977c18.30994891 0 33.14018016-17.89569707 33.14018015-36.20564597z m-66.28035909-527.17740942v298.26161778h-629.66341571v-298.26161778h629.66341571z m-367.11034122 497.10269628h104.55726671c18.30994891 0 33.14018016 14.83023004 33.14018016 33.14017895s-14.83023004 33.14018016-33.14018016 33.14018016H459.88706774c-18.30994891 0-33.14018016-14.83023004-33.14018016-33.14018016s14.83023004-33.14018016 33.14018016-33.14017895z"  horiz-adv-x="1024" />

    
    <glyph glyph-name="gongnengtubiao-131" unicode="&#59111;" d="M628.07347958 240.58587211999998v-151.53347151c0-18.30994891-13.33892195-33.14018016-31.56602121-33.14018016H164.11096345c-18.30994891 0-33.14018016 14.83023004-33.14018016 33.14018016v546.81296592c0 18.30994891 14.83023004 33.14018016 33.14018016 33.14017894H596.50745837c18.30994891 0 31.56602122-14.83023004 31.56602121-33.14017894v-151.61632237c0-18.30994891-14.83023004-33.14018016-33.14018016-33.14018016s-33.14018016 14.83023004-33.14017894 33.14018016V602.7251863700001h-364.54197809v-480.53260682h364.54197809V240.58587211999998c0 18.30994891 14.83023004 33.14018016 33.14017894 33.14018016s33.14018016-14.83023004 33.14018016-33.14018016z m255.59363676 146.3138932l-129.82665459 131.15226219a33.20646011 33.20646011 0 0 1-46.89335394 0.24855134 33.20646011 33.20646011 0 0 1-0.24855136-46.89335516l74.15115139-74.81395579-402.1560813-0.99420539c-18.30994891-0.08285085-33.14018016-14.91308089-33.0573293-33.2230298a33.11532502 33.11532502 0 0 1 33.14018015-33.0573293h0.08285086l401.6589786 0.91135454-73.73690076-74.4825536a33.20646011 33.20646011 0 0 1 0.24855135-46.89335394 32.99933358 32.99933358 0 0 1 46.81050431 0.24855135l129.82665459 131.15226096a33.20646011 33.20646011 0 0 1 0 46.6448026z"  horiz-adv-x="1024" />

    
    <glyph glyph-name="gongnengtubiao-176" unicode="&#59124;" d="M897.08888914 412.91480724c-0.08285085 1.15990589-0.16570049 2.31981298-0.33140221 3.47971887-0.16570049 0.99420539-0.33140221 2.07126164-0.57995354 3.06546582-0.24855135 1.07705625-0.57995355 2.07126164-0.9942054 3.14831788-0.33140221 1.07705625-0.74565405 2.07126164-1.24275674 3.06546583-0.41425184 0.91135454-0.91135454 1.82271029-1.49130809 2.65121519-0.57995355 0.99420539-1.24275675 1.98841078-1.98841079 2.98261618-0.24855135 0.41425184-0.4971027 0.8285049-0.82850368 1.15990588L711.33818122 650.61274571c-6.29663456 7.70509179-15.74158578 12.17901605-25.68363972 12.17901606H346.63050262c-9.94205392 0-19.38700515-4.47392427-25.68363849-12.17901606L142.56984579 432.46751289c-0.33140221-0.41425184-0.4971027-0.8285049-0.82850368-1.15990588-0.74565405-0.91135454-1.32560759-1.90555993-1.98841078-2.98261618-0.4971027-0.91135454-0.99420539-1.73985943-1.49130809-2.65121519-0.4971027-0.99420539-0.8285049-1.98841078-1.24275674-3.06546583-0.33140221-0.99420539-0.74565405-2.07126164-0.99420539-3.14831788-0.24855135-0.99420539-0.41425184-1.98841078-0.57995356-3.06546582-0.16570049-1.15990589-0.33140221-2.31981298-0.3314022-3.47971887 0-0.4971027-0.16570049-0.91135454-0.1657005-1.40845845v-296.43890749c0-36.03994548 29.66046128-65.45185541 66.03180777-65.45185541h630.07766755c36.45419732 0 66.03180775 29.32905908 66.03180897 65.45185541V411.50634879c0.16570049 0.4971027 0.08285085 0.91135454 0 1.40845845zM362.37208842 596.4285518199999h307.62371815l124.19282444-149.1308089H684.08038378c-9.44495123 0-18.47565061-5.71668101-24.77228519-12.84181924l-75.55960983-86.57872002H448.53655537L372.97694553 434.53877453c-6.29663456 7.04228861-15.32733273 12.84181925-24.77228396 12.84181925H238.09641435l124.27567407 149.04795804z m468.60214211-480.53260561h-629.66341571v265.12143761h132.06361672l71.99704011-82.60189843c8.53359669-9.61065172 20.87831325-16.81864082 33.80298334-16.81864082H593.19343999c12.9246701 0 25.26938666 7.2079891 33.80298335 16.81864082l71.99704132 82.60189843h131.98076587v-265.12143761z"  horiz-adv-x="1024" />

    
    <glyph glyph-name="gongnengtubiao-147" unicode="&#59131;" d="M826.99740896 335.11823527v-324.35950933c0-18.30994891-14.83023004-33.14018016-33.14018016-33.14018016s-33.14018016 14.83023004-33.14018016 33.14018016V335.11823527c0 18.30994891 14.83023004 33.14018016 33.14018016 33.14017895s33.14018016-14.83023004 33.14018016-33.14017895z m-33.14018016 310.02638078c18.30994891 0 33.14018016 14.83023004 33.14018016 33.14018016v28.33485369c0 18.30994891-14.83023004 33.14018016-33.14018016 33.14018015s-33.14018016-14.83023004-33.14018016-33.14018015v-28.33485369c0-18.30994891 14.91308089-33.14018016 33.14018016-33.14018016zM328.90050727 358.64776249c0-55.01269879-44.32499083-99.66909061-98.92343656-99.66909061s-98.92343657 44.73924267-98.92343657 99.66909061c0 55.01269879 44.32499083 99.66909061 98.92343657 99.66909061S328.90050727 413.66046128 328.90050727 358.64776249z m-66.28036032 0c0 18.39279977-14.66452955 33.38873151-32.64307624 33.3887315s-32.64307746-14.99593174-32.64307746-33.3887315 14.66452955-33.38873151 32.64307746-33.3887315 32.64307746 14.99593174 32.64307624 33.3887315z m348.46899011-162.96683353c0-55.01269879-44.32499083-99.66909061-98.92343657-99.66909061-54.5155961 0-98.92343657 44.73924267-98.92343656 99.66909061 0 55.01269879 44.32499083 99.75194146 98.92343656 99.75194025 54.59844574-0.08285085 98.92343657-44.73924267 98.92343657-99.75194025z m-66.28035911 0c0 18.47565061-14.66452955 33.47158115-32.64307746 33.47158114s-32.64307746-14.99593174-32.64307624-33.47158114c0-18.39279977 14.66452955-33.38873151 32.64307624-33.38873151 18.06139756-0.08285085 32.64307746 14.91308089 32.64307746 33.38873151z m348.55184096 306.87806411c0-55.01269879-44.32499083-99.66909061-98.92343656-99.66909062-54.5155961 0-98.92343657 44.73924267-98.92343657 99.66909062 0 55.01269879 44.32499083 99.66909061 98.92343657 99.66909061 54.5155961 0.08285085 98.92343657-44.65639182 98.92343656-99.66909061z m-66.28036032 0c0 18.39279977-14.66452955 33.38873151-32.64307624 33.38873151s-32.64307746-14.99593174-32.64307746-33.38873151 14.66452955-33.38873151 32.64307746-33.38873151 32.64307746 14.99593174 32.64307624 33.38873151z m-314.9145581-439.68733488c-18.30994891 0-33.14018016-14.83023004-33.14017894-33.14018015v-19.05560296c0-18.30994891 14.83023004-33.14018016 33.14017894-33.14018016s33.14018016 14.83023004 33.14018016 33.14018016v19.05560296c0 18.30994891-14.83023004 33.14018016-33.14018016 33.14018015z m0 273.40648296c18.30994891 0 33.14018016 14.83023004 33.14018016 33.14018016v337.20132859c0 18.30994891-14.83023004 33.14018016-33.14018016 33.14018015s-33.14018016-14.83023004-33.14017894-33.14018015v-337.28417945c0-18.22709927 14.91308089-33.0573293 33.14017894-33.0573293z m-281.69152708-120.71310434c-18.30994891 0-33.14018016-14.83023004-33.14018016-33.14018016v-171.66613071c0-18.30994891 14.83023004-33.14018016 33.14018016-33.14018016s33.14018016 14.83023004 33.14017894 33.14018016V182.42485665000004c0 18.22709927-14.83023004 33.14018016-33.14017894 33.14018016z m0 284.59129363c18.30994891 0 33.14018016 14.83023004 33.14017894 33.14017895V706.6196499c0 18.30994891-14.83023004 33.14018016-33.14017894 33.14018015s-33.14018016-14.83023004-33.14018016-33.14018015v-173.32314051c0-18.30994891 14.91308089-33.14018016 33.14018016-33.14017895z"  horiz-adv-x="1024" />

    
    <glyph glyph-name="moon_circle" unicode="&#59545;" d="M512-53.138286c238.72 0 437.138286 197.997714 437.138286 437.138286 0 238.72-198.857143 437.138286-437.577143 437.138286C272.438857 821.138286 74.88 622.72 74.88 384c0-239.140571 197.997714-437.138286 437.138286-437.138286z m0 72.850286C309.705143 19.712 148.114286 181.723429 148.114286 384c0 201.874286 161.152 364.288 363.446857 364.288 201.856 0 364.269714-162.432 364.708571-364.288 0.420571-202.294857-162.432-364.288-364.288-364.288z m122.569143 269.147429c-129.865143 0-212.992 81.426286-212.992 211.291428 0 26.989714 7.277714 65.133714 14.994286 85.284572 2.139429 5.558857 2.56 8.996571 2.56 11.136a13.897143 13.897143 0 0 1-14.134858 13.714285c-2.998857 0-8.137143-0.420571-13.714285-2.56-88.722286-35.145143-148.297143-131.145143-148.297143-231.862857 0-141.001143 107.574857-241.737143 248.594286-241.737143 102.838857 0 191.561143 63.451429 222.427428 141.019429 2.139429 5.577143 2.56 11.154286 2.56 12.854857 0 8.996571-7.277714 14.994286-14.134857 14.994286-2.56 0-5.577143-0.420571-10.294857-1.700572-17.993143-6.436571-48-12.434286-77.568-12.434285z"  horiz-adv-x="1024" />

    
    <glyph glyph-name="moon_circle_fill" unicode="&#59546;" d="M512-53.138286c238.72 0 437.138286 198.418286 437.138286 437.138286 0 239.140571-198.857143 437.138286-437.577143 437.138286C272.438857 821.138286 74.88 623.140571 74.88 384c0-238.72 197.997714-437.138286 437.138286-437.138286z m126.848 346.697143c29.586286 0 59.574857 6.436571 77.586286 12.873143 4.699429 1.28 7.698286 1.718857 10.276571 1.718857 6.857143 0 14.153143-6.016 14.153143-14.994286 0-1.718857-0.438857-7.314286-2.578286-12.873142-30.866286-78.006857-119.588571-140.982857-222.427428-140.982858-141.001143 0-248.576 100.699429-248.576 241.700572 0 100.717714 59.574857 196.717714 148.297143 231.862857 5.558857 2.139429 10.697143 2.56 13.714285 2.56a13.897143 13.897143 0 0 0 14.134857-13.714286c0-2.139429-0.420571-5.558857-2.56-11.154285-7.734857-20.114286-15.012571-58.276571-15.012571-85.266286 0-129.865143 83.145143-211.712 212.992-211.712z"  horiz-adv-x="1024" />

    
    <glyph glyph-name="download" unicode="&#59556;" d="M477.933714 600.429714c1.28 16.713143 15.853714 31.707429 34.285715 31.707429 17.993143 0 32.566857-14.994286 33.846857-31.707429V813.421714c0 18.011429-15.414857 33.005714-33.846857 33.005715s-34.285714-14.994286-34.285715-33.005715z m69.430857 27.008v-271.725714l-2.578285-61.275429 27.008 28.269715 64.713143 69.430857a33.590857 33.590857 0 0 0 23.990857 10.715428c18.432 0 32.566857-13.275429 32.566857-31.268571 0-9.435429-3.84-17.152-10.715429-23.588571l-144.420571-139.702858c-8.996571-9.014857-16.713143-12.013714-25.709714-12.013714-8.996571 0-16.713143 2.998857-25.728 12.013714l-144.841143 139.702858c-6.857143 6.436571-10.715429 14.153143-10.715429 23.588571 0 17.993143 13.714286 31.268571 32.146286 31.268571 8.557714 0 18.413714-3.84 24.411428-10.715428l65.152-69.430857 26.989715-28.269715-2.56 61.275429v271.725714H266.221714c-89.142857 0-134.582857-44.16-134.582857-132.864v-440.137143c0-88.722286 45.44-132.864 134.582857-132.864H757.76c90.002286 0 134.582857 44.562286 134.582857 132.864v440.137143c0 88.283429-44.580571 132.845714-134.582857 132.845715z"  horiz-adv-x="1024" />

    
    <glyph glyph-name="file-text-line" unicode="&#59046;" d="M896 554.666667v-554.368A42.666667 42.666667 0 0 0 853.632-42.666667H170.368A42.368 42.368 0 0 0 128-0.341333V768.341333C128 791.253333 147.157333 810.666667 170.752 810.666667h469.12L896 554.666667z m-85.333333-42.666667h-213.333334V725.333333H213.333333v-682.666666h597.333334V512zM341.333333 597.333333h128v-85.333333H341.333333V597.333333z m0-170.666666h341.333334v-85.333334H341.333333v85.333334z m0-170.666667h341.333334v-85.333333H341.333333v85.333333z"  horiz-adv-x="1024" />

    
    <glyph glyph-name="share1" unicode="&#230;" d="M917.333333 21.33333300000004V256c0 23.466667-19.2 42.666667-42.666666 42.666667s-42.666667-19.2-42.666667-42.666667v-192H192V704h192c23.466667 0 42.666667 19.2 42.666667 42.666667s-19.2 42.666667-42.666667 42.666666H149.333333c-23.466667 0-42.666667-19.2-42.666666-42.666666v-725.333334c0-23.466667 19.2-42.666667 42.666666-42.666666h725.333334c23.466667 0 42.666667 19.2 42.666666 42.666666M917.333333 746.666667v8.533333 4.266667c0 2.133333 0 2.133333-2.133333 4.266666 0 2.133333-2.133333 2.133333-2.133333 4.266667s-2.133333 2.133333-2.133334 4.266667c-2.133333 2.133333-4.266667 4.266667-4.266666 6.4-2.133333 2.133333-4.266667 4.266667-6.4 4.266666 0 0-2.133333 2.133333-4.266667 2.133334s-2.133333 2.133333-4.266667 2.133333-2.133333 0-4.266666 2.133333c-2.133333 0-2.133333 0-4.266667 2.133334H618.666667c-23.466667 0-42.666667-19.2-42.666667-42.666667s19.2-42.666667 42.666667-42.666667h153.6L375.466667 307.20000000000005c-17.066667-17.066667-17.066667-42.666667 0-59.733333 8.533333-8.533333 19.2-12.8 29.866666-12.8s21.333333 4.266667 29.866667 12.8L832 644.266667V490.666667c0-23.466667 19.2-42.666667 42.666667-42.666667s42.666667 19.2 42.666666 42.666667V746.666667z"  horiz-adv-x="1024" />

    
    <glyph glyph-name="file-baidupan" unicode="&#59041;" d="M866.76619264 63.84049606999997c-2.62936235 0.69193728-5.12033792 1.38387456-7.74970027 2.07581298-23.38748871 6.36582571-39.30205298 28.36943986-37.64140259 51.89531648 1.79903715 24.90975232 20.20457586 44.69916558 44.56077767 47.88207844 27.67750144 3.59807545 53.27919104-16.05295104 57.29242908-43.86884154 3.87485013-26.70878947-14.80746325-52.03370325-41.93141532-56.87726648-1.10709987-0.13838791-2.21419975-0.69193728-3.32129963-1.10709988H866.76619264zM920.87570887 303.66605085000003c-9.41035065 53.00241635-35.84236544 96.04093155-78.46571804 128.83877091-30.72202752 23.52587662-65.45729195 37.22624-104.06740651 41.10109127-7.05776299 0.69193728-14.11552597 0.9687131-21.45006478 1.52226247 4.84356323 46.91336533-4.70517533 90.36704427-29.33815183 130.36103339-24.49458973 39.71721557-58.53791687 69.05536739-102.40675726 84.69315584-80.12636843 28.50782663-153.05658595 13.70036338-214.77741454-44.28400299-48.57401571-45.52949077-68.22504221-103.51385714-62.412767-170.07824896 47.60530375-0.83032519 89.39833117-15.77617635 126.76295907-44.83755349-44.56077767 54.38629091-21.58845155 120.12035869 12.73165028 147.65947335 37.50301469 30.16847701 97.00964466 33.21300195 137.69557219-6.08905102 33.62816455-32.52106467 41.37786595-84.55476793 16.32972573-126.34779648-12.73165141-21.31167687-30.99880221-36.53430272-54.6630656-44.56077767-32.52106467-10.93261312-63.24309219-6.36582571-92.16608143 11.76293831 0.69193728-1.24548779 1.38387456-2.07581298 2.21419976-2.90613817 19.23586389-20.61973845 33.76655246-44.14561507 43.45367779-70.71601664 1.10709987-3.04452494 1.10709987-5.12033792-1.24548665-7.7497014-1.52226247-1.66065038-3.04452494-3.32130077-4.56678855-5.12033679 0.13838791 1.52226247-0.27677469 3.18291285-0.96871196 5.12033679-14.53068857 38.6101157-38.88689038 69.74730467-71.82311765 94.2418944-31.69073949 23.52587662-67.53310493 36.67269063-106.83515791 39.02527829-26.15523897 1.52226247-37.77979051 4.70517533-65.59567985-1.79903829-9.96390115-2.90613817-10.65583843-3.32130077-20.34296378-7.05776299 0.27677469-0.55355051 0.41516259-0.9687131 0.69193728-1.52226247 22.28038883 3.45968754 38.33333987-6.36582571 50.92660452-25.6016896 15.36101376-23.24910194 5.95066311-48.71240363-12.1781009-69.74730468 46.08304128 16.88327623 76.25151829 5.95066311 108.49580714-31.8291274 31.13719011-36.67269063 32.38267677-77.63539285 11.76293831-120.12035754-0.69193728-0.83032519-1.52226247-1.66065038-2.21419975-2.49097558-25.74007637-30.16847701-57.84597959-42.48496583-96.73286997-36.94946531-42.20819001 5.95066311-76.11313038 39.30205298-84.69315584 82.20218141-8.30325077 41.65464064 11.20938781 85.80025571 47.74369052 106.97354467 21.31167687 12.31648882 31.69073949 40.27076494 20.75812751 64.76535467-12.73165141 28.64621454-45.25271609 37.50301469-67.39471816 26.29362688-24.77136441-12.5932635-45.52949077-30.86041429-62.412767-53.00241636C105.08133945 345.18230357000004 92.34968803 288.58181176999994 104.52778894 226.72259527000006c15.36101376-78.46571805 81.2334683-143.50784739 159.83757426-158.59208647 8.58002546-1.66065038 17.29843883-2.90613817 26.01685219-4.29001273h31.55235158c4.29001273 0.69193728 8.58002546 1.52226247 12.87003818 2.07581298 48.29724103 7.05776299 89.67510585 28.09266403 122.19617167 64.35019207 61.4440539 68.22504221 122.05778375 137.14202169 182.80990037 205.9206144 13.83875129 15.63778845 30.4452517 26.57040157 50.51144078 32.38267677 55.35500402 16.19133895 115.13840754-18.26715079 127.87005896-74.59086792 2.49097557-10.93261312 2.35258766-22.41877675 4.01323804-33.62816455 3.32130077-24.07942713 24.2178139-42.34657792 48.57401572-43.0385152 25.04813909-0.69193728 47.05175325 15.77617635 51.61854065 39.99399026 2.90613817 15.36101376 1.24548779 30.99880221-1.52226247 46.35981597z"  horiz-adv-x="1024" />

    
    <glyph glyph-name="file-lock-line" unicode="&#59042;" d="M640 725.333333H213.333333v-682.666666h597.333334V554.666667h-170.666667V725.333333zM128 768.341333C128 791.722667 147.072 810.666667 170.624 810.666667H682.666667l213.333333-213.333334v-597.034666A42.666667 42.666667 0 0 0 853.632-42.666667H170.368A42.666667 42.666667 0 0 0 128-0.341333V768.341333zM640 426.666667h42.666667v-213.333334H341.333333v213.333334h42.666667v42.666666a128 128 0 0 0 256 0v-42.666666z m-85.333333 0v42.666666a42.666667 42.666667 0 0 1-85.333334 0v-42.666666h85.333334z"  horiz-adv-x="1024" />

    
    <glyph glyph-name="file-code-line" unicode="&#59043;" d="M640 725.333333H213.333333v-682.666666h597.333334V554.666667h-170.666667V725.333333zM128 768.341333C128 791.722667 147.072 810.666667 170.624 810.666667H682.666667l213.333333-213.333334v-597.034666A42.666667 42.666667 0 0 0 853.632-42.666667H170.368A42.666667 42.666667 0 0 0 128-0.341333V768.341333zM753.365333 384l-150.869333-150.869333-60.330667 60.373333L632.661333 384l-90.453333 90.496 60.288 60.373333L753.365333 384zM270.634667 384L421.546667 534.869333l60.330666-60.373333L391.338667 384l90.453333-90.496-60.288-60.373333L270.634667 384z"  horiz-adv-x="1024" />

    
    <glyph glyph-name="file-music-line" unicode="&#59044;" d="M682.666667 554.666667v-85.333334h-128v-192a106.666667 106.666667 0 1 0-85.333334 104.533334V554.666667h170.666667V725.333333H213.333333v-682.666666h597.333334V554.666667h-128zM128 768.341333C128 791.722667 147.072 810.666667 170.624 810.666667H682.666667l213.333333-213.333334v-597.034666A42.666667 42.666667 0 0 0 853.632-42.666667H170.368A42.666667 42.666667 0 0 0 128-0.341333V768.341333z"  horiz-adv-x="1024" />

    
    <glyph glyph-name="file-ppt-line" unicode="&#59045;" d="M128 768.341333C128 791.722667 147.072 810.666667 170.624 810.666667H682.666667l213.333333-213.333334v-597.034666A42.666667 42.666667 0 0 0 853.632-42.666667H170.368A42.666667 42.666667 0 0 0 128-0.341333V768.341333zM213.333333 725.333333v-682.666666h597.333334V554.666667h-128v-256h-256v-85.333334H341.333333V554.666667h298.666667V725.333333H213.333333z m213.333334-256v-85.333333h170.666666v85.333333h-170.666666z"  horiz-adv-x="1024" />

    
    <glyph glyph-name="file-zip-line" unicode="&#59049;" d="M853.333333-42.666667H170.666667a42.666667 42.666667 0 0 0-42.666667 42.666667V768a42.666667 42.666667 0 0 0 42.666667 42.666667h682.666666a42.666667 42.666667 0 0 0 42.666667-42.666667v-768a42.666667 42.666667 0 0 0-42.666667-42.666667z m-42.666666 85.333334V725.333333H213.333333v-682.666666h597.333334z m-213.333334 341.333333v-213.333333h-170.666666v128h85.333333v85.333333h85.333333z m-85.333333 341.333333h85.333333v-85.333333h-85.333333V725.333333z m-85.333333-85.333333h85.333333v-85.333333h-85.333333V640z m85.333333-85.333333h85.333333v-85.333334h-85.333333V554.666667z m-85.333333-85.333334h85.333333v-85.333333h-85.333333v85.333333z"  horiz-adv-x="1024" />

    
    <glyph glyph-name="file-word-line" unicode="&#59061;" d="M682.666667 554.666667v-341.333334h-85.333334l-85.333333 85.333334-85.333333-85.333334H341.333333V554.666667h85.333334v-213.333334l85.333333 85.333334 85.333333-85.333334V554.666667h42.666667V725.333333H213.333333v-682.666666h597.333334V554.666667h-128zM128 768.341333C128 791.722667 147.072 810.666667 170.624 810.666667H682.666667l213.333333-213.333334v-597.034666A42.666667 42.666667 0 0 0 853.632-42.666667H170.368A42.666667 42.666667 0 0 0 128-0.341333V768.341333z"  horiz-adv-x="1024" />

    
    <glyph glyph-name="numbers-line" unicode="&#59063;" d="M384 128H170.666667v341.333333h213.333333v-341.333333z m-85.333333 85.333333v170.666667H256v-170.666667h42.666667z m256 0V554.666667h-42.666667v-341.333334h42.666667z m85.333333-85.333333h-213.333333V640h213.333333v-512z m170.666667 85.333333V725.333333h-42.666667v-512h42.666667z m85.333333-85.333333h-213.333333V810.666667h213.333333v-682.666667z m42.666667-170.666667H128v85.333334h810.666667v-85.333334z"  horiz-adv-x="1024" />

    
    <glyph glyph-name="todo-line" unicode="&#59065;" d="M725.333333 810.666667h128a42.666667 42.666667 0 0 0 42.666667-42.666667v-768a42.666667 42.666667 0 0 0-42.666667-42.666667H170.666667a42.666667 42.666667 0 0 0-42.666667 42.666667V768a42.666667 42.666667 0 0 0 42.666667 42.666667h128V896h85.333333v-85.333333h256V896h85.333333v-85.333333z m0-85.333334v-85.333333h-85.333333V725.333333H384v-85.333333H298.666667V725.333333H213.333333v-682.666666h597.333334V725.333333h-85.333334zM298.666667 554.666667h426.666666v-85.333334H298.666667V554.666667z m0-170.666667h426.666666v-85.333333H298.666667v85.333333z"  horiz-adv-x="1024" />

    
    <glyph glyph-name="k-line" unicode="&#59127;" d="M170.666667 682.666667v-597.333334h682.666666V682.666667H170.666667zM128 768h768a42.666667 42.666667 0 0 0 42.666667-42.666667v-682.666666a42.666667 42.666667 0 0 0-42.666667-42.666667H128a42.666667 42.666667 0 0 0-42.666667 42.666667V725.333333a42.666667 42.666667 0 0 0 42.666667 42.666667z m362.666667-448h-42.666667V256H384v64H256V512h64v-128H384V512h64v-128h42.666667v-64zM768 256h-74.666667l-74.666666 96V256H554.666667V512h64v-96L693.333333 512H768l-96-128L768 256z"  horiz-adv-x="1024" />

    
    <glyph glyph-name="film-line" unicode="&#59135;" d="M85.333333 725.632A42.666667 42.666667 0 0 0 127.658667 768h768.682666c23.381333 0 42.325333-18.986667 42.325334-42.368v-683.264a42.666667 42.666667 0 0 0-42.325334-42.368H127.658667A42.368 42.368 0 0 0 85.333333 42.368V725.632zM341.333333 682.666667v-597.333334h341.333334V682.666667H341.333333zM170.666667 682.666667v-85.333334h85.333333V682.666667H170.666667z m597.333333 0v-85.333334h85.333333V682.666667h-85.333333zM170.666667 512v-85.333333h85.333333V512H170.666667z m597.333333 0v-85.333333h85.333333V512h-85.333333zM170.666667 341.333333v-85.333333h85.333333v85.333333H170.666667z m597.333333 0v-85.333333h85.333333v85.333333h-85.333333zM170.666667 170.666667v-85.333334h85.333333v85.333334H170.666667z m597.333333 0v-85.333334h85.333333v85.333334h-85.333333z"  horiz-adv-x="1024" />

    
    <glyph glyph-name="hd-line" unicode="&#59137;" d="M170.666667 682.666667v-597.333334h682.666666V682.666667H170.666667zM128 768h768a42.666667 42.666667 0 0 0 42.666667-42.666667v-682.666666a42.666667 42.666667 0 0 0-42.666667-42.666667H128a42.666667 42.666667 0 0 0-42.666667 42.666667V725.333333a42.666667 42.666667 0 0 0 42.666667 42.666667z m192-352h85.333333V512H469.333333v-256H405.333333v96h-85.333333V256H256V512h64v-96z m298.666667 32v-128H682.666667a21.333333 21.333333 0 0 1 21.333333 21.333333v85.333334a21.333333 21.333333 0 0 1-21.333333 21.333333h-64zM554.666667 512h128a85.333333 85.333333 0 0 0 85.333333-85.333333v-85.333334a85.333333 85.333333 0 0 0-85.333333-85.333333h-128V512z"  horiz-adv-x="1024" />

    
    <glyph glyph-name="image-line" unicode="&#59144;" d="M205.994667 0l-0.853334-0.853333-0.896 0.853333H127.658667A42.368 42.368 0 0 0 85.333333 42.368V725.632A42.666667 42.666667 0 0 0 127.658667 768h768.682666c23.381333 0 42.325333-18.986667 42.325334-42.368v-683.264a42.666667 42.666667 0 0 0-42.325334-42.368H205.994667zM853.333333 256V682.666667H170.666667v-597.333334L597.333333 512l256-256z m0-120.661333l-256 256L291.328 85.333333H853.333333v50.005334zM341.333333 426.666667a85.333333 85.333333 0 1 0 0 170.666666 85.333333 85.333333 0 0 0 0-170.666666z"  horiz-adv-x="1024" />

    
    <glyph glyph-name="hq-line" unicode="&#59154;" d="M170.666667 682.666667v-597.333334h682.666666V682.666667H170.666667zM128 768h768a42.666667 42.666667 0 0 0 42.666667-42.666667v-682.666666a42.666667 42.666667 0 0 0-42.666667-42.666667H128a42.666667 42.666667 0 0 0-42.666667 42.666667V725.333333a42.666667 42.666667 0 0 0 42.666667 42.666667z m192-352h85.333333V512H469.333333v-256H405.333333v96h-85.333333V256H256V512h64v-96zM693.333333 256v-64h-64V256H597.333333a42.666667 42.666667 0 0 0-42.666666 42.666667v170.666666a42.666667 42.666667 0 0 0 42.666666 42.666667h128a42.666667 42.666667 0 0 0 42.666667-42.666667v-170.666666a42.666667 42.666667 0 0 0-42.666667-42.666667h-32z m-74.666666 192v-128h85.333333v128h-85.333333z"  horiz-adv-x="1024" />

    
    <glyph glyph-name="movie--line" unicode="&#59155;" d="M512 42.666667h341.333333v-85.333334h-341.333333C276.352-42.666667 85.333333 148.352 85.333333 384S276.352 810.666667 512 810.666667s426.666667-191.018667 426.666667-426.666667a424.789333 424.789333 0 0 0-85.333334-256h-115.541333A341.333333 341.333333 0 1 1 512 42.666667z m0 426.666666a85.333333 85.333333 0 1 0 0 170.666667 85.333333 85.333333 0 0 0 0-170.666667z m-170.666667-170.666666a85.333333 85.333333 0 1 0 0 170.666666 85.333333 85.333333 0 0 0 0-170.666666z m341.333334 0a85.333333 85.333333 0 1 0 0 170.666666 85.333333 85.333333 0 0 0 0-170.666666z m-170.666667-170.666667a85.333333 85.333333 0 1 0 0 170.666667 85.333333 85.333333 0 0 0 0-170.666667z"  horiz-adv-x="1024" />

    
    <glyph glyph-name="vidicon-line" unicode="&#59172;" d="M725.333333 503.466667l222.421334 155.733333a21.333333 21.333333 0 0 0 33.578666-17.493333v-515.413334a21.333333 21.333333 0 0 0-33.578666-17.493333L725.333333 264.533333V85.333333a42.666667 42.666667 0 0 0-42.666666-42.666666H85.333333a42.666667 42.666667 0 0 0-42.666666 42.666666V682.666667a42.666667 42.666667 0 0 0 42.666666 42.666666h597.333334a42.666667 42.666667 0 0 0 42.666666-42.666666v-179.2z m0-134.784l170.666667-119.466667V518.826667l-170.666667-119.466667v-30.634667zM128 640v-512h512V640H128z m85.333333-85.333333h85.333334v-85.333334H213.333333V554.666667z"  horiz-adv-x="1024" />

    
    <glyph glyph-name="download--line" unicode="&#59209;" d="M554.666667 469.333333h213.333333l-256-256-256 256h213.333333V768h85.333334v-298.666667z m-384-384h682.666666v298.666667h85.333334v-341.333333a42.666667 42.666667 0 0 0-42.666667-42.666667H128a42.666667 42.666667 0 0 0-42.666667 42.666667v341.333333h85.333334v-298.666667z"  horiz-adv-x="1024" />

    
    <glyph glyph-name="video" unicode="&#59039;" d="M935.466106 709.850369 86.484212 709.850369c-13.734816 0-24.970718-11.235902-24.970718-24.970718l0-586.771961c0-13.728676 11.235902-24.969695 24.970718-24.969695l848.981894 0c13.739932 0 24.969695 11.241019 24.969695 24.969695L960.435801 684.878628C960.432731 698.613444 949.206038 709.850369 935.466106 709.850369L935.466106 709.850369zM196.510094 160.533462c0-6.855128-5.621021-12.485359-12.486382-12.485359l-56.17951 0c-6.864338 0-12.486382 5.630231-12.486382 12.485359l0 56.180534c0 6.879688 5.621021 12.485359 12.486382 12.485359l56.17951 0c6.864338 0 12.486382-5.606695 12.486382-12.485359L196.510094 160.533462 196.510094 160.533462zM196.510094 297.866271c0-6.850012-5.621021-12.485359-12.486382-12.485359l-56.17951 0c-6.864338 0-12.486382 5.635347-12.486382 12.485359l0 56.180534c0 6.879688 5.621021 12.483312 12.486382 12.483312l56.17951 0c6.864338 0 12.486382-5.604648 12.486382-12.483312L196.510094 297.866271 196.510094 297.866271zM196.510094 428.938492c0-6.864338-5.621021-12.487406-12.486382-12.487406l-56.17951 0c-6.864338 0-12.486382 5.622044-12.486382 12.487406l0 56.180534c0 6.864338 5.621021 12.485359 12.486382 12.485359l56.17951 0c6.864338 0 12.486382-5.621021 12.486382-12.485359L196.510094 428.938492 196.510094 428.938492zM196.510094 566.272323c0-6.864338-5.621021-12.485359-12.486382-12.485359l-56.17951 0c-6.864338 0-12.486382 5.619998-12.486382 12.485359l0 56.181557c0 6.864338 5.621021 12.485359 12.486382 12.485359l56.17951 0c6.864338 0 12.486382-5.621021 12.486382-12.485359L196.510094 566.272323 196.510094 566.272323zM766.917342 156.36042c0-13.728676-11.226692-24.969695-24.968671-24.969695L280.00267 131.390725c-13.732769 0-24.969695 11.241019-24.969695 24.969695L255.032976 627.137553c0 13.733792 11.236925 24.970718 24.969695 24.970718l461.946001 0c13.743002 0 24.968671-11.236925 24.968671-24.970718L766.917342 156.36042 766.917342 156.36042zM906.592498 160.533462c0-6.855128-5.622044-12.485359-12.486382-12.485359l-56.17951 0c-6.865361 0-12.485359 5.630231-12.485359 12.485359l0 56.180534c0 6.879688 5.619998 12.485359 12.485359 12.485359l56.17951 0c6.864338 0 12.486382-5.606695 12.486382-12.485359L906.592498 160.533462 906.592498 160.533462zM906.592498 297.866271c0-6.850012-5.622044-12.485359-12.486382-12.485359l-56.17951 0c-6.865361 0-12.485359 5.635347-12.485359 12.485359l0 56.180534c0 6.879688 5.619998 12.483312 12.485359 12.483312l56.17951 0c6.864338 0 12.486382-5.604648 12.486382-12.483312L906.592498 297.866271 906.592498 297.866271zM906.592498 428.938492c0-6.864338-5.622044-12.487406-12.486382-12.487406l-56.17951 0c-6.865361 0-12.485359 5.622044-12.485359 12.487406l0 56.180534c0 6.864338 5.619998 12.485359 12.485359 12.485359l56.17951 0c6.864338 0 12.486382-5.621021 12.486382-12.485359L906.592498 428.938492 906.592498 428.938492zM906.592498 566.272323c0-6.864338-5.622044-12.485359-12.486382-12.485359l-56.17951 0c-6.865361 0-12.485359 5.619998-12.485359 12.485359l0 56.181557c0 6.864338 5.619998 12.485359 12.485359 12.485359l56.17951 0c6.864338 0 12.486382-5.621021 12.486382-12.485359L906.592498 566.272323 906.592498 566.272323zM410.788365 276.031986l231.058446 115.2867L410.788365 506.963543 410.788365 276.031986zM410.788365 276.031986"  horiz-adv-x="1024" />

    
    <glyph glyph-name="video-o" unicode="&#59040;" d="M170.667008 725.332992v-682.665984h682.665984V725.332992H170.667008z m0 56.889344h682.665984c31.419392 0 56.889344-25.469952 56.889344-56.889344v-682.665984c0-31.419392-25.469952-56.889344-56.889344-56.889344H170.667008c-31.419392 0-56.889344 25.469952-56.889344 56.889344V725.332992c0 31.419392 25.469952 56.889344 56.889344 56.889344zM170.667008 611.555328h682.665984v-56.88832H170.667008zM631.783424 273.224704L439.38816 177.027072c-14.050304-7.02464-31.136768-1.3312-38.162432 12.721152a28.444672 28.444672 0 0 0-3.002368 12.720128V394.86464c0 15.709184 12.734464 28.444672 28.444672 28.444672 4.415488 0 8.77056-1.028096 12.720128-3.003392l192.396288-96.197632c14.051328-7.02464 19.746816-24.111104 12.721152-38.162432a28.444672 28.444672 0 0 0-12.721152-12.721152z m-62.89408 25.442304l-113.778688 56.88832v-113.77664l113.778688 56.88832zM284.444672 725.332992h56.88832l57.2416-113.77664h-56.889344zM455.110656 725.332992H512l57.2416-113.77664h-56.889344zM625.777664 725.332992h56.889344l57.2416-113.77664H683.01824z"  horiz-adv-x="1024" />

    
    <glyph glyph-name="play-go" unicode="&#59037;" d="M512 832C264.6 832 64 631.4 64 384s200.6-448 448-448 448 200.6 448 448S759.4 832 512 832z m144.1-454.9L437.7 218.20000000000005c-1.4-1-3-1.5-4.7-1.5-4.4 0-8 3.6-8 8V542.3c0 1.7 0.5 3.3 1.5 4.7 2.6 3.6 7.6 4.4 11.2 1.8L656.1 390c0.7-0.5 1.3-1.1 1.8-1.8 2.6-3.5 1.8-8.5-1.8-11.1z"  horiz-adv-x="1024" />

    
    <glyph glyph-name="play-pause" unicode="&#59038;" d="M512 832C264.6 832 64 631.4 64 384s200.6-448 448-448 448 200.6 448 448S759.4 832 512 832z m-80-600c0-4.4-3.6-8-8-8h-48c-4.4 0-8 3.6-8 8V536c0 4.4 3.6 8 8 8h48c4.4 0 8-3.6 8-8v-304z m224 0c0-4.4-3.6-8-8-8h-48c-4.4 0-8 3.6-8 8V536c0 4.4 3.6 8 8 8h48c4.4 0 8-3.6 8-8v-304z"  horiz-adv-x="1024" />

    
    <glyph glyph-name="play" unicode="&#58975;" d="M512 810.666667c235.648 0 426.666667-191.018667 426.666667-426.666667s-191.018667-426.666667-426.666667-426.666667S85.333333 148.35199999999998 85.333333 384 276.352 810.666667 512 810.666667z m-75.52-256h-19.626667c-11.434667 0-15.573333-1.194667-19.754666-3.413334a23.253333 23.253333 0 0 1-9.685334-9.685333c-2.218667-4.181333-3.413333-8.32-3.413333-19.712v-275.712c0-11.392 1.194667-15.530667 3.413333-19.712a23.253333 23.253333 0 0 1 9.685334-9.685333c4.181333-2.218667 8.32-3.413333 19.712-3.413334h19.712c11.392 0 15.530667 1.194667 19.712 3.413334a23.253333 23.253333 0 0 1 9.685333 9.685333c2.218667 4.181333 3.413333 8.32 3.413333 19.712V521.856c0 11.392-1.194667 15.530667-3.413333 19.712a23.253333 23.253333 0 0 1-9.685333 9.685333c-4.181333 2.218667-8.32 3.413333-19.712 3.413334z m170.666667 0h-19.626667c-11.434667 0-15.573333-1.194667-19.754667-3.413334a23.253333 23.253333 0 0 1-9.685333-9.685333c-2.218667-4.181333-3.413333-8.32-3.413333-19.712v-275.712c0-11.392 1.194667-15.530667 3.413333-19.712a23.253333 23.253333 0 0 1 9.685333-9.685333c4.181333-2.218667 8.32-3.413333 19.712-3.413334h19.712c11.392 0 15.530667 1.194667 19.712 3.413334a23.253333 23.253333 0 0 1 9.685334 9.685333c2.218667 4.181333 3.413333 8.32 3.413333 19.712V521.856c0 11.392-1.194667 15.530667-3.413333 19.712a23.253333 23.253333 0 0 1-9.685334 9.685333c-4.181333 2.218667-8.32 3.413333-19.712 3.413334z"  horiz-adv-x="1024" />

    
    <glyph glyph-name="pause" unicode="&#59020;" d="M512 810.666667c235.648 0 426.666667-191.018667 426.666667-426.666667s-191.018667-426.666667-426.666667-426.666667S85.333333 148.35199999999998 85.333333 384 276.352 810.666667 512 810.666667z m-75.434667-277.12a42.666667 42.666667 0 0 1-9.898666-27.306667v-244.48a42.666667 42.666667 0 0 1 69.973333-32.768l146.688 122.24a42.666667 42.666667 0 0 1 0 65.536L496.64 539.008a42.666667 42.666667 0 0 1-60.074667-5.461333z"  horiz-adv-x="1024" />

    
    <glyph glyph-name="PlayListbofangliebiao" unicode="&#59023;" d="M820.48 170.666667c11.434667 0 15.573333-1.194667 19.754667-3.413334a23.253333 23.253333 0 0 0 9.685333-9.685333c2.218667-4.181333 3.413333-8.32 3.413333-19.712v-19.712c0-11.392-1.194667-15.530667-3.413333-19.712a23.253333 23.253333 0 0 0-9.685333-9.685333c-4.181333-2.218667-8.32-3.413333-19.712-3.413334H203.477333c-11.392 0-15.530667 1.194667-19.712 3.413334a23.253333 23.253333 0 0 0-9.685333 9.685333c-2.218667 4.181333-3.413333 8.32-3.413333 19.712v19.712c0 11.392 1.194667 15.530667 3.413333 19.712a23.253333 23.253333 0 0 0 9.685333 9.685333c4.181333 2.218667 8.32 3.413333 19.712 3.413334h617.045334z m0 256c11.434667 0 15.573333-1.194667 19.754667-3.413334a23.253333 23.253333 0 0 0 9.685333-9.685333c2.218667-4.181333 3.413333-8.32 3.413333-19.712v-19.712c0-11.392-1.194667-15.530667-3.413333-19.712a23.253333 23.253333 0 0 0-9.685333-9.685333c-4.181333-2.218667-8.32-3.413333-19.712-3.413334H203.477333c-11.392 0-15.530667 1.194667-19.712 3.413334a23.253333 23.253333 0 0 0-9.685333 9.685333c-2.218667 4.181333-3.413333 8.32-3.413333 19.712v19.712c0 11.392 1.194667 15.530667 3.413333 19.712a23.253333 23.253333 0 0 0 9.685333 9.685333c4.181333 2.218667 8.32 3.413333 19.712 3.413334h617.045334zM196.266667 742.4a25.6 25.6 0 0 0 15.36-5.12l102.4-76.8a25.6 25.6 0 0 0 0-40.96l-102.4-76.8A25.6 25.6 0 0 0 170.666667 563.2V716.8a25.6 25.6 0 0 0 25.6 25.6zM820.48 682.666667c11.434667 0 15.573333-1.194667 19.754667-3.413334a23.253333 23.253333 0 0 0 9.685333-9.685333c2.218667-4.181333 3.413333-8.32 3.413333-19.712v-19.712c0-11.392-1.194667-15.530667-3.413333-19.712a23.253333 23.253333 0 0 0-9.685333-9.685333c-4.181333-2.218667-8.32-3.413333-19.712-3.413334h-361.045334c-11.392 0-15.530667 1.194667-19.712 3.413334a23.253333 23.253333 0 0 0-9.685333 9.685333c-2.218667 4.181333-3.413333 8.32-3.413333 19.712v19.712c0 11.392 1.194667 15.530667 3.413333 19.712a23.253333 23.253333 0 0 0 9.685333 9.685333c4.181333 2.218667 8.32 3.413333 19.712 3.413334h361.045334z"  horiz-adv-x="1024" />

    
    <glyph glyph-name="mouse" unicode="&#59979;" d="M512-96A320 320 0 0 0 192 224V544a320 320 0 0 0 640 0v-320a320 320 0 0 0-320-320z m0 896a256 256 0 0 1-256-256v-320a256 256 0 0 1 512 0V544a256 256 0 0 1-256 256zM512 448a128 128 0 1 0 128 128 128 128 0 0 0-128-128z m0 192a64 64 0 1 1 64-64 64 64 0 0 1-64 64z"  horiz-adv-x="1024" />

    
    <glyph glyph-name="chat-alt" unicode="&#59016;" d="M512 805.875C279.125 805.875 90.125 637.125 90.125 426.1875A360.5625 360.5625 0 0 1 213.59375 159L202.625-14.25a22.21875 22.21875 0 0 1 34.3125-19.6875l147.65625 98.4375A464.625 464.625 0 0 1 512 46.5c232.875 0 421.875 168.75 421.875 379.6875S744.875 805.875 512 805.875zM329.1875 355.875a70.3125 70.3125 0 1 0 70.3125 70.3125A70.3125 70.3125 0 0 0 329.1875 355.875z m182.8125 0a70.3125 70.3125 0 1 0 70.3125 70.3125A70.3125 70.3125 0 0 0 512 355.875z m182.8125 0a70.3125 70.3125 0 1 0 70.3125 70.3125 70.3125 70.3125 0 0 0-70.3125-70.3125z"  horiz-adv-x="1024" />

    
    <glyph glyph-name="instagram" unicode="&#59132;" d="M512 536.342857c-83.885714 0-152.342857-68.457143-152.342857-152.342857S428.114286 231.657143 512 231.657143 664.342857 300.114286 664.342857 384 595.885714 536.342857 512 536.342857zM968.914286 384c0 63.085714 0.571429 125.6-2.971429 188.571429-3.542857 73.142857-20.228571 138.057143-73.714286 191.542857-53.6 53.6-118.4 70.171429-191.542857 73.714285-63.085714 3.542857-125.6 2.971429-188.571428 2.971429-63.085714 0-125.6 0.571429-188.571429-2.971429-73.142857-3.542857-138.057143-20.228571-191.542857-73.714285C78.4 710.514286 61.828571 645.714286 58.285714 572.571429c-3.542857-63.085714-2.971429-125.6-2.971428-188.571429s-0.571429-125.6 2.971428-188.571429c3.542857-73.142857 20.228571-138.057143 73.714286-191.542857 53.6-53.6 118.4-70.171429 191.542857-73.714285 63.085714-3.542857 125.6-2.971429 188.571429-2.971429 63.085714 0 125.6-0.571429 188.571428 2.971429 73.142857 3.542857 138.057143 20.228571 191.542857 73.714285 53.6 53.6 70.171429 118.4 73.714286 191.542857 3.657143 62.971429 2.971429 125.485714 2.971429 188.571429zM512 149.6c-129.714286 0-234.4 104.685714-234.4 234.4S382.285714 618.4 512 618.4 746.4 513.714286 746.4 384 641.714286 149.6 512 149.6z m244 423.657143c-30.285714 0-54.742857 24.457143-54.742857 54.742857s24.457143 54.742857 54.742857 54.742857 54.742857-24.457143 54.742857-54.742857a54.674286 54.674286 0 0 0-54.742857-54.742857z"  horiz-adv-x="1024" />

    
    <glyph glyph-name="mail1" unicode="&#59315;" d="M853.333333 725.333333H170.666667c-47.146667 0-84.906667-38.186667-84.906667-85.333333L85.333333 128c0-47.146667 38.186667-85.333333 85.333334-85.333333h682.666666c47.146667 0 85.333333 38.186667 85.333334 85.333333V640c0 47.146667-38.186667 85.333333-85.333334 85.333333z m0-170.666666L512 341.333333 170.666667 554.666667v85.333333l341.333333-213.333333 341.333333 213.333333v-85.333333z"  horiz-adv-x="1024" />

    
    <glyph glyph-name="flash2" unicode="&#59002;" d="M716.8 428.8 595.2 428.8l64 352c0 12.8-12.8 12.8-19.2 6.4L300.8 358.4c-6.4-6.4 0-19.2 6.4-19.2l121.6 0-64-352c0-12.8 12.8-12.8 19.2-6.4l339.2 428.8C729.6 416 729.6 428.8 716.8 428.8z"  horiz-adv-x="1024" />

    
    <glyph glyph-name="write" unicode="&#59015;" d="M640 384 448 192l-102.4-19.2c0 12.8-6.4 25.6-19.2 38.4s-25.6 12.8-38.4 19.2l19.2 102.4 198.4 198.4c12.8 12.8 12.8 32 0 44.8s-32 12.8-44.8 0L256 364.8C256 358.4 249.6 352 249.6 345.6l-44.8-224c0-12.8 0-19.2 6.4-32 6.4-6.4 12.8-6.4 25.6-6.4 0 0 6.4 0 6.4 0L467.2 128c6.4 0 12.8 6.4 19.2 6.4l204.8 204.8c12.8 12.8 12.8 32 0 44.8S652.8 396.8 640 384zM576 633.6c-12.8 12.8-32 12.8-44.8 0s-12.8-32 0-44.8l179.2-179.2c6.4-6.4 12.8-6.4 25.6-6.4s19.2 0 25.6 6.4c12.8 12.8 12.8 32 0 44.8L576 633.6zM857.6 601.6l-134.4 134.4c-25.6 25.6-64 25.6-89.6 0L588.8 697.6C576 678.4 576 659.2 588.8 640l172.8-172.8c12.8-12.8 38.4-12.8 51.2 0L857.6 512C883.2 537.6 883.2 576 857.6 601.6zM371.2 249.6c6.4-6.4 12.8-6.4 25.6-6.4s19.2 0 25.6 6.4l179.2 179.2c12.8 12.8 12.8 32 0 44.8s-32 12.8-44.8 0L371.2 294.4C358.4 281.6 358.4 262.4 371.2 249.6z"  horiz-adv-x="1024" />

    
    <glyph glyph-name="write-1" unicode="&#58912;" d="M157.737998 168.12975200000005l-29.543962-168.890707 166.985504 31.453261 481.034815 481.044372L638.787831 649.174124 157.737998 168.12975200000005zM886.163902 676.6674840000001l-82.460283 82.450044c-15.184968 15.18019-42.867415 12.104287-61.847772-6.865831L673.127225 683.533315l137.442224-137.436763 68.727938 68.718382C898.257949 633.7850510000001 901.34887 661.4777369999999 886.163902 676.6674840000001z"  horiz-adv-x="1024" />

    
    <glyph glyph-name="Calendar" unicode="&#59138;" d="M838.73 24C857 24 872 37.5 872 54l-26.1 299.1-27.27-306.9c-0.6-7.8-2.4-15.3-4.8-22.2h24.9z m-79.8 27.3L812 651.3C812 670.5 798.53 684 782 684h-150v-27.9c16.53 0 30-14.4 30-30.9C662 608.4 648.53 594 632 594c-32.97 0-60 27.9-60 62.1V684h-180v-27.9c16.53 0 30-14.4 30-30.9C422 608.4 408.53 594 392 594c-32.97 0-60 27.9-60 62.1V684H265.13a30 30 0 0 1-30-27.3L182 56.700000000000045c0-19.2 13.53-32.7 30-32.7h516.93c15.57 0 28.5 11.7 30 27.3z m172.8 10.2c0.27-2.4 0.27-4.8 0.27-7.5 0-49.5-41.97-90-93.27-90H212a90.3 90.3 0 0 0-89.67 98.1l53.1 599.7A89.79 89.79 0 0 0 265.13 744H332c1.2 33.3 27.6 60 60 60s58.8-26.7 60-60h120c1.2 33.3 27.6 60 60 60s58.8-26.7 60-60h90c0.93 0 1.53 0 2.4-0.3 0.63 0.3 0.93 0.3 1.5 0.3 48.93 0 88.83-35.4 93.03-82.5l52.8-600zM547.49 189a30 30 0 1 0 0-60H422a30 30 0 0 0 0 60h125.49z m47.88 311.37a29.97 29.97 0 1 0 42.42-42.42l-169.68-169.71a30 30 0 0 0-46.41 4.92L366.8 378a30 30 0 1 0 50.4 32.58l34.74-53.7 143.4 143.49z"  horiz-adv-x="1024" />

    
    <glyph glyph-name="Calendar1" unicode="&#59139;" d="M877.625 538.6875V635.15625C877.625 651.75 864.125 665.25 847.53125 665.25H751.0625v-9.84375c0-15.46875-12.65625-28.125-28.125-28.125s-28.125 12.65625-28.125 28.125V665.25h-365.625v-9.84375c0-15.46875-12.65625-28.125-28.125-28.125s-28.125 12.65625-28.125 28.125V665.25H176.46875C159.875 665.25 146.375 651.75 146.375 635.15625v-96.46875h731.25z m0-448.03125V482.4375H146.375v-391.78125c0-16.59375 13.5-30.09375 30.09375-30.09375h671.0625c16.59375 0 30.09375 13.5 30.09375 30.09375zM847.53125 721.5C895.0625 721.5 933.875 682.6875 933.875 635.15625v-544.5c0-47.53125-38.8125-86.34375-86.34375-86.34375H176.46875C128.9375 4.3125 90.125 43.125 90.125 90.65625V635.15625C90.125 682.6875 128.9375 721.5 176.46875 721.5H272.9375V749.625c0 15.46875 12.65625 28.125 28.125 28.125s28.125-12.65625 28.125-28.125v-28.125h365.625V749.625c0 15.46875 12.65625 28.125 28.125 28.125s28.125-12.65625 28.125-28.125v-28.125h96.46875zM459.153125 209.85000000000002l-79.565625 79.5375a28.125 28.125 0 0 0 39.796875 39.76875l59.653125-62.465625 139.21875 142.03125a28.096875 28.096875 0 1 0 39.76875-39.76875l-159.075-159.103125a28.040625 28.040625 0 0 0-39.796875 0z"  horiz-adv-x="1024" />

    
    <glyph glyph-name="Calendar2" unicode="&#59143;" d="M838.7 24c18.27 0 33.27 13.5 33.27 30l-26.1 299.1-27.27-306.9c-0.6-7.8-2.4-15.3-4.8-22.2h24.9z m-79.8 27.3l53.07 600c0 19.2-13.47 32.7-30 32.7h-150v-27.9c16.53 0 30-14.4 30-30.9 0-16.8-13.47-31.2-30-31.2-32.97 0-60 27.9-60 62.1V684h-180v-27.9c16.53 0 30-14.4 30-30.9 0-16.8-13.47-31.2-30-31.2-32.97 0-60 27.9-60 62.1V684H265.1a30 30 0 0 1-30-27.3L182 56.700000000000045c0-19.2 13.5-32.7 30-32.7h516.9c15.57 0 28.5 11.7 30 27.3z m172.8 10.2c0.27-2.4 0.27-4.8 0.27-7.5 0-49.5-41.97-90-93.27-90H212a90.24 90.24 0 0 0-89.7 98.1L175.4 661.8A89.85 89.85 0 0 0 265.1 744h66.87c1.2 33.3 27.6 60 60 60s58.8-26.7 60-60h120c1.2 33.3 27.6 60 60 60s58.8-26.7 60-60h90c0.93 0 1.53 0 2.4-0.3 0.63 0.3 0.93 0.3 1.5 0.3 48.93 0 88.83-35.4 93.03-82.5l52.8-600zM603.86 489a30 30 0 1 0 0-60h-245.49a30 30 0 0 0 0 60h245.49z m-56.4-150a30 30 0 1 0 0-60h-185.49a30 30 0 0 0 0 60h185.49z"  horiz-adv-x="1024" />

    
    <glyph glyph-name="Chat4" unicode="&#59145;" d="M896 213.16266667000002V682.66666667a32 32 0 0 1-32 32H192c-17.632 0-32-14.336-32-32v-501.504h253.728a32 32 0 0 0 26.624-14.24l87.648-131.52 87.648 131.52c5.952 8.896 15.936 14.24 26.624 14.24H864a32 32 0 0 1 32 32zM864 778.66666667c52.928 0 96-43.072 96-96v-469.504c0-52.928-43.072-96-96-96h-204.608l-78.144-117.248a63.584 63.584 0 0 0-53.376-28.544c-12.512 0-24.736 3.712-35.36 10.784a63.36 63.36 0 0 0-17.792 17.824l-78.112 117.184H160c-35.296 0-64 28.704-64 64V682.66666667c0 52.928 43.072 96 96 96h672z m-137.088-242.848a32 32 0 1 0 0-64H356.608a32 32 0 1 0 0 64h370.304z m-69.568-142.88a32 32 0 1 0 0-64h-243.616a32 32 0 1 0 0 64h243.616z"  horiz-adv-x="1024" />

    
    <glyph glyph-name="Filesave" unicode="&#59146;" d="M872 79.79999999999995V586.5c0 21.9-13.8 40.2-30 40.2H452c-7.8 0-15.3 3-21 8.4L349.7 714H182c-16.2 0-30-18.3-30-39.9v-594.3c0-21.63 13.8-39.9 30-39.9h660c16.2 0 30 18.27 30 39.9zM842 686.7c49.5 0 90-45 90-100.2v-506.7c0-55.2-40.5-99.9-90-99.9H182c-49.5 0-90 44.7-90 99.9V674.1C92 729.3 132.5 774 182 774h180c7.8 0 15.3-3 21-8.4l81.3-78.9H842z m-221.7-301.5c16.5 0 30-13.2 30-30 0-16.5-13.5-30-30-30h-79.5v-79.5c0-16.5-13.5-30-30-30-16.8 0-30 13.5-30 30v79.5H401c-16.5 0-30 13.5-30 30 0 16.8 13.5 30 30 30h79.8V465c0 16.5 13.2 30 30 30 16.5 0 30-13.5 30-30v-79.8h79.5z"  horiz-adv-x="1024" />

    
    <glyph glyph-name="Favorite" unicode="&#59147;" d="M812 76.11000000000001V744c0 16.53-13.44 30-30 30H272c-16.56 0-30-13.47-30-30v-667.89a29.91 29.91 0 0 1 24.12-29.4c7.92-1.68 15.87 0 22.53 4.44l188.43 125.61a89.7 89.7 0 0 0 99.81 0l188.46-125.61A30 30 0 0 1 812 76.11000000000001zM782 834c49.62 0 90-40.38 90-90v-667.89c0-49.62-40.38-90-90-90a89.55 89.55 0 0 0-49.98 15.15l-188.37 125.58a29.97 29.97 0 0 1-33.33 0l-188.4-125.61a89.1 89.1 0 0 0-67.59-13.35 89.31 89.31 0 0 0-57.21 38.31A89.61 89.61 0 0 0 182 76.11000000000001V744c0 49.62 40.38 90 90 90h510z m-209.4-345.15l23.1 22.47-31.89 4.62a30 30 0 0 0-22.56 16.41l-14.25 28.8-14.25-28.8a30 30 0 0 0-22.56-16.41l-31.86-4.62 23.07-22.5a30 30 0 0 0 8.58-26.52l-5.43-31.71 28.5 14.97a29.82 29.82 0 0 0 27.9 0l28.5-15-5.43 31.74a30 30 0 0 0 8.58 26.55z m91.86 73.11a30.06 30.06 0 0 0 16.62-51.18l-55.29-53.88 13.08-76.11a30 30 0 0 0-43.53-31.59L527 385.11l-68.34-35.91a30 30 0 1 0-43.53 31.59l13.08 76.11-55.29 53.88a30 30 0 0 0 16.62 51.18l76.41 11.1 34.17 69.21c10.05 20.52 43.71 20.52 53.76 0l34.2-69.21 76.38-11.1z"  horiz-adv-x="1024" />

    
    <glyph glyph-name="Filefavorite" unicode="&#59148;" d="M872 79.71000000000004V586.62c0 21.66-13.74 39.96-30 39.96H452c-7.8 0-15.3 3.03-20.91 8.46L349.82 714H182c-16.26 0-30-18.3-30-39.93v-594.36c0-21.63 13.74-39.9 30-39.9h660c16.26 0 30 18.27 30 39.9zM842 686.58c49.62 0 90-44.85 90-99.96v-506.91c0-55.08-40.38-99.9-90-99.9H182c-49.62 0-90 44.82-90 99.9V674.0699999999999C92 729.15 132.38 774 182 774h180c7.8 0 15.3-3.06 20.91-8.49l81.27-78.93H842z m-294.36-352.74l23.04 22.47-31.83 4.62a30.03 30.03 0 0 0-22.62 16.41l-14.22 28.86-14.25-28.86a30 30 0 0 0-22.59-16.41l-31.83-4.62 23.04-22.5c7.05-6.84 10.29-16.8 8.64-26.52l-5.46-31.71 28.47 14.97a29.94 29.94 0 0 0 27.9 0l28.5-15-5.43 31.74a30 30 0 0 0 8.64 26.55z m91.8 73.11a30 30 0 0 0 16.65-51.18l-55.29-53.88 13.08-76.11a30.09 30.09 0 0 0-29.58-35.1c-4.8 0-9.6 1.2-13.98 3.51l-68.31 35.91-68.34-35.91a30 30 0 1 0-43.53 31.59l13.05 76.11-55.26 53.88a30.03 30.03 0 0 0 16.62 51.18l76.38 11.1 34.17 69.21c10.08 20.49 43.68 20.55 53.79 0l34.17-69.21 76.41-11.1z"  horiz-adv-x="1024" />

    
    <glyph glyph-name="lock" unicode="&#59149;" d="M527 135.33333332999996a30 30 0 0 0-30 30v90a30 30 0 1 0 60 0v-90a30 30 0 0 0-30-30z m285-90V345.33333332999996c0 16.5-13.47 30-30 30H272c-16.5 0-30-13.5-30-30v-300c0-16.5 13.5-30 30-30h510c16.53 0 30 13.5 30 30zM362 600.33333333V435.33333333h330V600.33333333C692 691.23333333 617.9 765.33333333 527 765.33333333A165.3 165.3 0 0 1 362 600.33333333zM782 435.33333333c49.5 0 90-40.5 90-90v-300c0-49.5-40.5-90-90-90H272c-49.47 0-90 40.5-90 90V345.33333332999996c0 49.5 40.53 90 90 90h30V600.33333333C302 724.53333333 402.8 825.33333333 527 825.33333333 651.23 825.33333333 752 724.53333333 752 600.33333333V435.33333333h30z"  horiz-adv-x="1024" />

    
    <glyph glyph-name="Key" unicode="&#59150;" d="M224 256c-70.72 0-128 57.28-128 128s57.28 128 128 128 128-57.28 128-128-57.28-128-128-128m736 160H413.12c-15.04 90.88-94.048 160-189.12 160-105.92 0-192-86.08-192-192s86.08-192 192-192c95.072 0 174.08 69.12 189.12 160H704v-128c0-17.6 14.4-32 32-32 17.632 0 32 14.4 32 32v128h96v-64c0-17.6 14.4-32 32-32 17.632 0 32 14.4 32 32v64h32c17.632 0 32 14.4 32 32s-14.368 32-32 32"  horiz-adv-x="1024" />

    
    <glyph glyph-name="LogOut" unicode="&#59151;" d="M602 264c16.53 0 30-13.5 30-30v-180c0-49.5-40.5-90-90-90H182c-49.47 0-90 40.5-90 90V714c0 49.5 40.53 90 90 90h360c49.5 0 90-40.5 90-90v-180c0-16.5-13.47-30-30-30-16.5 0-30 13.5-30 30V714c0 16.5-13.47 30-30 30H182c-16.5 0-30-13.5-30-30v-660c0-16.5 13.5-30 30-30h360c16.53 0 30 13.5 30 30v180c0 16.5 13.5 30 30 30z m321.3 141.3c11.7-11.7 11.7-30.9 0-42.6l-150-150A30.6 30.6 0 0 0 752 204c-7.8 0-15.3 3-21.3 8.7-11.7 11.7-11.7 30.9 0 42.6l99 98.7H302c-16.5 0-30 13.5-30 30s13.5 30 30 30h527.7l-99 98.7c-11.7 11.7-11.7 30.9 0 42.6 11.7 11.7 30.9 11.7 42.6 0l150-150z"  horiz-adv-x="1024" />

    
    <glyph glyph-name="Refresh" unicode="&#59152;" d="M902 324c0-215.1-174.9-390-390-390S122 108.89999999999998 122 324C122 533.1 287.33 704.1 494 713.4l-64.17 70.2c-11.1 12.3-10.23 31.2 1.77 42.6 12.3 11.1 31.2 10.2 42.6-1.8l120-131.1c5.4-5.7 8.13-13.5 7.8-21.6-0.3-7.8-3.9-15.3-9.9-20.7l-120-109.2a29.79 29.79 0 0 0-42.27 2.1 29.91 29.91 0 0 0 2.07 42.3L506.33 654C326.9 651 182 504.3 182 324c0-182.1 147.93-330 330-330 182.1 0 330 147.9 330 330 0 16.5 13.5 30 30 30 16.53 0 30-13.5 30-30"  horiz-adv-x="1024" />

    
    <glyph glyph-name="Save" unicode="&#59153;" d="M877.625 46.5V557.8125c0 7.3125-3.065625 14.625-8.4375 19.96875l-165.09375 163.6875a27.5625 27.5625 0 0 1-19.6875 8.15625H652.625v-140.625c0-46.40625-37.96875-84.375-84.375-84.375H287c-46.40625 0-84.375 37.96875-84.375 84.375V749.625H174.5c-15.46875 0-28.125-12.65625-28.125-28.125v-675c0-15.46875 12.65625-28.125 28.125-28.125h56.25v253.125c0 46.40625 37.96875 84.375 84.375 84.375h393.75c46.40625 0 84.375-37.96875 84.375-84.375v-253.125h56.25c15.496875 0 28.125 12.65625 28.125 28.125z m-140.625-28.125v253.125c0 15.46875-12.628125 28.125-28.125 28.125H315.125c-15.46875 0-28.125-12.65625-28.125-28.125v-253.125h450zM258.875 749.625v-140.625c0-15.46875 12.65625-28.125 28.125-28.125h281.25c15.496875 0 28.125 12.65625 28.125 28.125V749.625H258.875z m649.96875-131.90625c16.059375-15.75 25.03125-37.6875 25.03125-59.90625V46.5c0-46.40625-37.96875-84.375-84.375-84.375H174.5c-46.40625 0-84.375 37.96875-84.375 84.375V721.5c0 46.40625 37.96875 84.375 84.375 84.375h509.90625c22.528125 0 43.621875-8.71875 59.34375-24.46875l165.09375-163.6875zM512 609a28.125 28.125 0 0 0-28.125 28.125V693.375a28.125 28.125 0 0 0 56.25 0v-56.25a28.125 28.125 0 0 0-28.125-28.125z"  horiz-adv-x="1024" />

    
    <glyph glyph-name="unlock" unicode="&#59162;" d="M588.8 294.4a32 32 0 0 0 32-32v-89.6a32 32 0 1 0-64 0v89.6a32 32 0 0 0 32 32z m281.6-236.8v290.24c0 17.6-14.4 32-32 32H339.2c-17.6 0-32-14.4-32-32v-290.24c0-17.6 14.4-32 32-32h499.2c17.6 0 32 14.4 32 32z m-32 386.24c52.8 0 96-43.168 96-96v-290.24c0-52.768-43.2-96-96-96H339.2c-52.8 0-96 43.232-96 96v290.24c0 52.832 43.2 96 96 96h112.96V605.76C452.16 695.392 379.52 768 290.24 768A162.24 162.24 0 0 1 128 605.76v-179.2c0-17.6-14.4-32-32-32s-32 14.4-32 32v179.2C64 730.56 165.44 832 290.24 832c124.48 0 225.92-101.44 225.92-226.24v-161.92H838.4z"  horiz-adv-x="1024" />

    
    <glyph glyph-name="like" unicode="&#58972;" d="M861.184 693.13422222c-47.67288889 47.67288889-111.16088889 73.95555555-178.63111111 73.95555556-63.71555555 0-123.904-23.43822222-170.55288889-66.21866667-46.64888889 42.78044445-106.83733333 66.21866667-170.55288889 66.21866667-67.47022222 0-130.84444445-26.28266667-178.63111111-73.95555556-47.67288889-47.67288889-73.95555555-111.16088889-73.95555555-178.63111111s26.28266667-130.84444445 73.95555555-178.63111111L487.87911111 10.808888890000048c6.71288889-6.71288889 15.36-10.01244445 24.12088889-10.01244444s17.52177778 3.29955555 24.12088889 10.01244444l325.06311111 325.06311111c47.67288889 47.67288889 73.95555555 111.16088889 73.95555555 178.63111111s-26.28266667 130.95822222-73.95555555 178.63111111z"  horiz-adv-x="1024" />

    
    <glyph glyph-name="like-line" unicode="&#58974;" d="M512 0.9102222200000369c-9.10222222 0-17.74933333 3.64088889-24.12088889 10.01244445L162.816 335.87199999999996c-47.67288889 47.67288889-73.95555555 111.16088889-73.95555555 178.63111111s26.28266667 130.84444445 73.95555555 178.63111111c47.67288889 47.67288889 111.16088889 73.95555555 178.63111111 73.95555556 63.71555555 0 123.904-23.43822222 170.55288889-66.21866667 46.64888889 42.78044445 106.83733333 66.21866667 170.55288889 66.21866667 67.47022222 0 130.84444445-26.28266667 178.63111111-73.95555556 47.67288889-47.67288889 73.95555555-111.16088889 73.95555555-178.63111111s-26.28266667-130.84444445-73.95555555-178.63111111L536.12088889 10.922666670000012c-6.37155555-6.48533333-15.01866667-10.01244445-24.12088889-10.01244445zM341.44711111 698.82311111c-49.26577778 0-95.57333333-19.22844445-130.38933333-53.93066666-71.90755555-71.90755555-71.90755555-188.75733333 0-260.6648889L512 83.28533332999996l300.94222222 300.94222222c71.90755555 71.90755555 71.90755555 188.75733333 0 260.6648889-34.816 34.816-81.12355555 53.93066667-130.38933333 53.93066666s-95.57333333-19.22844445-130.38933334-53.93066666l-16.04266666-16.04266667c-13.312-13.312-34.92977778-13.312-48.24177778 0l-16.04266666 16.04266667c-34.92977778 34.816-81.12355555 53.93066667-130.38933334 53.93066666zM837.06311111 360.10666667z"  horiz-adv-x="1024" />

    
    <glyph glyph-name="export" unicode="&#59281;" d="M888.3 138.6h-53.8c-4.2 0-7.7-3.5-7.7-7.7v-61.8H197.1V698.9h629.8v-61.8c0-4.2 3.5-7.7 7.7-7.7h53.8c4.2 0 7.7 3.4 7.7 7.7V737.3c0 17-13.7 30.7-30.7 30.7H158.7c-17 0-30.7-13.7-30.7-30.7v-706.6c0-17 13.7-30.7 30.7-30.7h706.6c17 0 30.7 13.7 30.7 30.7V130.9c0 4.3-3.5 7.7-7.7 7.7zM906.9 390.3L765 502.3c-5.3 4.2-13 0.4-13-6.3v-76H438c-4.4 0-8-3.6-8-8v-56c0-4.4 3.6-8 8-8h314v-76c0-6.7 7.8-10.5 13-6.3l141.9 112c4.1 3.2 4.1 9.4 0 12.6z"  horiz-adv-x="1024" />

    
    <glyph glyph-name="check1" unicode="&#59018;" d="M205.06497593 439.66514517a32.36345629 32.36345629 0 0 1-50.09863111-40.84268146l202.07742407-247.70989852a32.36345629 32.36345629 0 0 1 46.60337778-3.75416149L867.99802482 561.3517437099999a32.36345629 32.36345629 0 1 1-43.04339741 48.28627741L385.7825189 218.29910072999996 205.06497593 439.66514517z"  horiz-adv-x="1024" />

    
    <glyph glyph-name="relation" unicode="&#59019;" d="M220.72888889 319.27308629000004h95.92528554a32.36345629 32.36345629 0 1 0 0-64.7269137H220.72888889c-34.88780629 0-64.72691371 26.14967296-64.72691371 60.71384519V711.58291001c0 34.56417223 29.83910741 60.71384519 64.72691371 60.71384405h388.3614811c34.88780629 0 64.72691371-26.14967296 64.72691371-60.71384405v-396.38761927c0-34.56417223-29.83910741-60.71384519-64.72691371-60.71384519H512a32.36345629 32.36345629 0 1 0 0 64.7269137h97.09036999c0.90617629 0 0-0.77672334 0-4.07779555V707.63456739h-388.3614811c-0.90617629 0 0 0.77672334 0 4.07779556V319.27308629000004zM835.63456739 448.72691371h-96.05473962a32.36345629 32.36345629 0 0 0 0 64.7269137H835.63456739c34.88780629 0 64.72691371-26.14967296 64.72691371-60.71384519v-396.45234517c0-34.49944519-29.83910741-60.64911815-64.72691371-60.64911815H447.27308629c-34.88780629 0-64.72691371 26.14967296-64.7269137 60.71384405V452.67525518C382.54617259 487.30415445 412.38528 513.45382741 447.27308629 513.45382741h97.09037a32.36345629 32.36345629 0 0 0 0-64.7269137H447.27308629c-0.90617629 0 0 0.77672334 0 4.07779555V60.36543260999997h388.3614811c0.90617629 0 0-0.77672334 0-4.07779556V448.72691371z"  horiz-adv-x="1024" />

    
    <glyph glyph-name="right" unicode="&#59026;" d="M645.518222 373.191111L380.245333 589.539556a28.444444 28.444444 0 1 0 35.953778 44.032l291.271111-237.454223a28.444444 28.444444 0 0 0 0.796445-43.349333l-291.214223-257.479111a28.444444 28.444444 0 0 0-37.660444 42.666667l266.126222 235.235555z"  horiz-adv-x="1024" />

    
    <glyph glyph-name="left" unicode="&#59027;" d="M413.696 401.635556l265.272889 216.348444a28.444444 28.444444 0 1 1-35.953778 44.032L351.800889 424.561778a28.444444 28.444444 0 0 1-0.853333-43.349334l291.214222-257.479111a28.444444 28.444444 0 1 1 37.660444 42.666667L413.696 401.635556z"  horiz-adv-x="1024" />

    
    <glyph glyph-name="caret-down" unicode="&#59028;" d="M284.444444 497.777778h455.111112l-227.896889-284.444445z"  horiz-adv-x="1024" />

    
    <glyph glyph-name="caret-up" unicode="&#59029;" d="M284.444444 270.222222h455.111112L511.658667 554.666667z"  horiz-adv-x="1024" />

    
    <glyph glyph-name="up" unicode="&#59030;" d="M530.659556 429.112889l140.8-140.8a28.444444 28.444444 0 1 1 40.220444 40.220444L550.798222 489.472a28.330667 28.330667 0 0 1-40.220444 0L349.639111 328.53333299999997a28.444444 28.444444 0 1 1 40.277333-40.220444l140.743112 140.8z"  horiz-adv-x="1024" />

    
    <glyph glyph-name="down" unicode="&#59031;" d="M516.209778 329.102222L657.066667 469.902222a28.444444 28.444444 0 1 0 40.220444-40.220444l-160.881778-160.938667a28.330667 28.330667 0 0 0-40.220444 0L335.189333 429.681778A28.444444 28.444444 0 1 0 375.466667 469.902222l140.743111-140.8z"  horiz-adv-x="1024" />

    
    <glyph glyph-name="xiangqian" unicode="&#59032;" d="M436.7 384L648 750c8.3 14.3 3.3 32.7-11 41-14.3 8.3-32.7 3.3-41-11L376.5 399.8c-0.4-0.7-0.8-1.3-1.1-2 0-0.1-0.1-0.2-0.1-0.3-0.1-0.3-0.3-0.5-0.4-0.8-0.1-0.2-0.2-0.5-0.3-0.7 0-0.1-0.1-0.2-0.1-0.2-1.5-3.6-2.3-7.3-2.4-11v-1.4c0.1-3.7 0.9-7.5 2.4-11 0-0.1 0.1-0.2 0.1-0.3 0.1-0.2 0.2-0.5 0.3-0.7 0.1-0.3 0.3-0.5 0.4-0.8 0-0.1 0.1-0.2 0.1-0.2 0.4-0.7 0.7-1.4 1.1-2L596-12c8.3-14.3 26.7-19.2 41-11 14.3 8.3 19.2 26.7 11 41L436.7 384z"  horiz-adv-x="1024" />

    
    <glyph glyph-name="xianghou" unicode="&#59033;" d="M587.3 384L376 18c-8.3-14.3-3.3-32.7 11-41 14.3-8.3 32.7-3.3 41 11l219.5 380.2c0.4 0.7 0.8 1.3 1.1 2 0 0.1 0.1 0.2 0.1 0.3 0.1 0.3 0.3 0.5 0.4 0.8 0.1 0.2 0.2 0.5 0.3 0.7 0 0.1 0.1 0.2 0.1 0.2 1.5 3.6 2.3 7.3 2.4 11v0.7 0.7c-0.1 3.7-0.9 7.5-2.4 11 0 0.1-0.1 0.2-0.1 0.3-0.1 0.2-0.2 0.5-0.3 0.7-0.1 0.3-0.3 0.5-0.4 0.8 0 0.1-0.1 0.2-0.1 0.2-0.4 0.7-0.7 1.4-1.1 2L428 780c-8.3 14.3-26.7 19.2-41 11-14.3-8.3-19.2-26.7-11-41l211.3-366z"  horiz-adv-x="1024" />

    
    <glyph glyph-name="shouqi" unicode="&#59034;" d="M512 308.7L146 520c-14.3 8.3-32.7 3.3-41-11-8.3-14.3-3.3-32.7 11-41l380.2-219.5c0.7-0.4 1.3-0.8 2-1.1 0.1 0 0.2-0.1 0.3-0.1 0.3-0.1 0.5-0.3 0.8-0.4 0.2-0.1 0.5-0.2 0.7-0.3 0.1 0 0.2-0.1 0.2-0.1 3.6-1.5 7.3-2.3 11-2.4h1.4c3.7 0.1 7.5 0.9 11 2.4 0.1 0 0.2 0.1 0.3 0.1 0.2 0.1 0.5 0.2 0.7 0.3 0.3 0.1 0.5 0.3 0.8 0.4 0.1 0 0.2 0.1 0.2 0.1 0.7 0.4 1.4 0.7 2 1.1L908 468c14.3 8.3 19.2 26.7 11 41-8.3 14.3-26.7 19.2-41 11L512 308.7z"  horiz-adv-x="1024" />

    
    <glyph glyph-name="liulan" unicode="&#59035;" d="M910.2 421.1c-5.9 12.1-14.2 26.4-24.1 41.5-23.2 35.3-53.5 72.5-85.4 104.6C735.7 632.8 632.6 711 510 711c-53.5 0-108.2-14.7-162.5-43.8-44.2-23.7-87.3-56.3-128.1-96.9-32.4-32.2-62.8-69.3-85.6-104.6-23.1-35.5-34.8-62.5-34.8-80.3 0-17.7 11.7-44.7 34.8-80.1 22.9-35.1 53.3-72.1 85.7-104.2 40.8-40.5 83.9-72.9 128.1-96.5C401.8 75.7 456.5 61 510 61c122.5 0 225.7 77.8 290.7 143.1 31.9 32 62.2 69.1 85.4 104.2 9.9 15 18.2 29.3 24.1 41.4C917.7 365 921 376 921 385.4c0 9.4-3.3 20.4-10.8 35.7z m-79.3-87.3c-15.5-22.6-41.7-57.1-78.8-93.3C696.4 186 609.1 121 510 121c-100.7 0-188.1 64.3-243.7 118.2-29.2 28.4-57.1 61.4-78.4 93-20.1 29.7-27.2 47.5-28.7 53.2 1.5 5.7 8.7 23.5 28.7 53.4 21.3 31.7 49.1 64.9 78.4 93.4C321.9 586.4 409.3 651 510 651c99.1 0 186.4-65.3 242.1-120 37-36.4 63.3-71 78.8-93.7 19-27.8 27.1-45.1 29.6-51.9-2.5-6.7-10.6-24-29.6-51.6zM510 552c-91.5 0-166-74.5-166-166s74.5-166 166-166 166 74.5 166 166-74.5 166-166 166z m0-272c-58.4 0-106 47.6-106 106s47.6 106 106 106 106-47.6 106-106-47.6-106-106-106z"  horiz-adv-x="1024" />

    
    <glyph glyph-name="zhankai" unicode="&#59036;" d="M512 459.3L878 248c14.3-8.3 32.7-3.3 41 11 8.3 14.3 3.3 32.7-11 41L527.8 519.5c-0.7 0.4-1.3 0.8-2 1.1-0.1 0-0.2 0.1-0.3 0.1-0.3 0.1-0.5 0.3-0.8 0.4-0.2 0.1-0.5 0.2-0.7 0.3-0.1 0-0.2 0.1-0.2 0.1-3.6 1.5-7.3 2.3-11 2.4h-1.4c-3.7-0.1-7.5-0.9-11-2.4-0.1 0-0.2-0.1-0.3-0.1-0.2-0.1-0.5-0.2-0.7-0.3-0.3-0.1-0.5-0.3-0.8-0.4-0.1 0-0.2-0.1-0.2-0.1-0.7-0.4-1.4-0.7-2-1.1L116 300c-14.3-8.3-19.2-26.7-11-41 8.3-14.3 26.7-19.2 41-11l366 211.3z"  horiz-adv-x="1024" />

    
    <glyph glyph-name="sunny-night" unicode="&#58989;" d="M541.333333 724.437333a289.514667 289.514667 0 0 1-74.581333-194.133333c0-161.6 132.544-292.586667 296.064-292.586667 23.829333 0 46.997333 2.773333 69.184 8.021334C778.304 126.122667 657.066667 42.666667 516.096 42.666667 325.312 42.666667 170.666667 195.477333 170.666667 384S325.333333 725.333333 516.096 725.333333c8.469333 0 16.896-0.298667 25.237333-0.896z"  horiz-adv-x="1024" />

    
    <glyph glyph-name="sunny" unicode="&#58990;" d="M512 128c-141.376 0-256 114.624-256 256s114.624 256 256 256 256-114.624 256-256-114.624-256-256-256z m0 682.666667a32 32 0 0 0 32-32v-85.333334a32 32 0 0 0-64 0v85.333334A32 32 0 0 0 512 810.666667z m301.696-124.970667a32 32 0 0 0 0-45.248l-60.330667-60.352a32 32 0 1 0-45.269333 45.269333l60.352 60.330667a32 32 0 0 0 45.248 0zM938.666667 384a32 32 0 0 0-32-32h-85.333334a32 32 0 0 0 0 64h85.333334A32 32 0 0 0 938.666667 384z m-124.970667-301.696a32 32 0 0 0-45.248 0l-60.352 60.330667a32 32 0 1 0 45.269333 45.269333l60.330667-60.352a32 32 0 0 0 0-45.248zM512-42.666667a32 32 0 0 0-32 32v85.333334a32 32 0 0 0 64 0v-85.333334A32 32 0 0 0 512-42.666667zM210.304 82.304a32 32 0 0 0 0 45.248l60.330667 60.352a32 32 0 1 0 45.269333-45.269333l-60.352-60.330667a32 32 0 0 0-45.248 0zM85.333333 384a32 32 0 0 0 32 32h85.333334a32 32 0 0 0 0-64h-85.333334A32 32 0 0 0 85.333333 384zM210.304 685.696a32 32 0 0 0 45.248 0l60.352-60.330667a32 32 0 1 0-45.269333-45.269333l-60.330667 60.352a32 32 0 0 0 0 45.248z"  horiz-adv-x="1024" />

    
    <glyph glyph-name="putong" unicode="&#58991;" d="M471.552 228.16l-345.728 23.68a32 32 0 0 0-14.72 59.072L823.68 795.136a32 32 0 0 0 47.616-36.16l-172.16-800.32a32 32 0 0 0-57.984-7.68l-169.664 277.184zM228.864 308.928l250.688-17.216c17.536-2.176 33.28-11.392 44.992-27.648l133.632-218.24 128 650.496-557.312-387.392z"  horiz-adv-x="1024" />

    
    <glyph glyph-name="xuanzhong" unicode="&#58992;" d="M471.552 228.16l-345.728 23.68a32 32 0 0 0-14.72 59.072L823.68 795.136a32 32 0 0 0 47.616-36.16l-172.16-800.32a32 32 0 0 0-57.984-7.68l-169.664 277.184z"  horiz-adv-x="1024" />

    
    <glyph glyph-name="meiyuan" unicode="&#59538;" d="M925.65802277 558.75259067a449.6309961 449.6309961 0 0 1-413.65802277 274.06792229 446.51375346 446.51375346 0 0 1-317.39758746-131.4229255A446.57609843 446.57609843 0 0 1 63.11714208 384a446.51375346 446.51375346 0 0 1 131.48527046-317.45993243 447.51127149 447.51127149 0 0 1 317.39758746-131.42292549 446.51375346 446.51375346 0 0 1 317.45993243 131.42292549 446.51375346 446.51375346 0 0 1 131.42292549 317.45993243c0 60.59918544-11.84551953 119.39037109-35.22483515 174.75259067z m-404.36864121-140.6499621l13.21710595-6.79558855c44.20249189-22.94290226 68.89105035-39.15256093 85.41243246-55.86097791 17.70593502-18.01765983 26.62124679-37.53159463 29.67614447-65.15035808 2.99255271-27.4940749-5.11227731-53.99063315-23.50400417-76.62181061a139.52775553 139.52775553 0 0 0-74.3150511-45.7611132l-5.17462228-1.30924284v-51.93325213a34.53904193 34.53904193 0 0 0-69.07808385 0v51.62152868l-5.23696724 1.30924147a177.49576352 177.49576352 0 0 0-54.55173644 22.94290227 156.67258588 156.67258588 0 0 0-35.22483515 28.80331636 34.53904193 34.53904193 0 0 0 52.12028702 45.3870448c2.86786277-3.30427615 9.85048485-9.41407148 19.76331466-15.64855537 18.08000341-11.28441623 37.40690471-16.95779684 57.54428914-16.95779685 24.00276387 0 45.9481481 8.54124338 58.72884069 22.75586738a36.16000821 36.16000821 0 0 1 10.28689822 27.86814329c-2.36910445 21.6336594-20.63614276 37.28221478-78.11808558 67.14539415l-13.27945091 6.79558855c-44.20249189 22.94290226-68.95339394 39.09021595-85.41243245 55.79863294-17.76827997 18.01765983-26.62124679 37.53159463-29.61380088 65.21270305-3.11724263 27.4940749 4.98758739 53.99063315 23.37931561 76.55946563 17.83062494 21.94538422 44.26483684 38.21738786 74.37739607 45.82345818l5.11227731 1.30924284v51.87090717a34.66373185 34.66373185 0 0 0 69.20277378 0v-51.62152869l5.23696724-1.2468965c19.45158983-4.61351761 37.71862953-12.34427923 54.55173506-22.94290227 19.26455634-12.03255443 30.29959271-23.19228073 35.22483653-28.80331636a34.53904193 34.53904193 0 0 0-52.05794344-45.3870448 96.32278029 96.32278029 0 0 1-19.82565962 15.64855537 106.67202346 106.67202346 0 0 1-57.54428777 17.02014181c-23.9404189 0-45.9481481-8.54124338-58.72884069-22.81821234a36.40938806 36.40938806 0 0 1-10.34924455-27.86814329c2.36910445-21.6336594 20.63614276-37.28221478 78.18043191-67.14539415z"  horiz-adv-x="1024" />

    
    <glyph glyph-name="meiyuan1" unicode="&#59539;" d="M512-64.88285791999999c-60.59918544 0-119.39037109 11.84551953-174.69024571 35.22483515a448.88285792 448.88285792 0 0 0-142.70734175 96.19809034A446.82547829 446.82547829 0 0 0 63.11714208 384a446.70078835 446.70078835 0 0 0 131.48527046 317.39758746 446.51375346 446.51375346 0 0 0 317.39758746 131.4229255 447.88533988 447.88533988 0 0 0 317.45993243-131.4229255 446.70078835 446.70078835 0 0 0 131.42292549-317.39758746 446.51375346 446.51375346 0 0 0-131.42292549-317.45993243 446.51375346 446.51375346 0 0 0-317.45993243-131.42292549z m0 828.68763199a380.17884246 380.17884246 0 0 1-379.74242911-379.80477407 380.17884246 380.17884246 0 0 1 379.74242911-379.80477407 380.17884246 380.17884246 0 0 1 379.80477407 379.80477407 380.30353238 380.30353238 0 0 1-379.80477407 379.80477407z m0-683.67353075a34.72607681 34.72607681 0 0 0-34.53904193 34.47669697v51.62152869l-5.23696724 1.30924145a177.49576352 177.49576352 0 0 0-54.55173643 22.94290226 156.67258588 156.67258588 0 0 0-35.22483516 28.80331638 34.53904193 34.53904193 0 0 0 52.1202884 45.38704481c2.86786277-3.30427615 9.85048485-9.41407148 19.76331466-15.64855538 18.08000341-11.28441623 37.40690471-16.95779684 57.54428778-16.95779685 24.00276387 0 45.9481481 8.54124338 58.72884068 22.75586737a36.16000821 36.16000821 0 0 1 10.28689959 27.8681433c-2.36910445 21.6336594-20.63614276 37.28221478-78.11808695 67.14539414l-13.27945091 6.79558857c-44.20249189 22.94290226-68.95339394 39.09021595-85.41243246 55.79863294-17.76827997 18.01765983-26.62124679 37.53159463-29.6137995 65.21270444a101.49740118 101.49740118 0 0 0 23.4416592 76.62180919c17.83062494 21.94538422 44.26483684 38.21738786 74.37739607 45.82345818l5.11227731 1.30924284v51.87090717a34.66373185 34.66373185 0 0 0 69.20277378 0v-51.62152869l5.23696724-1.2468965c19.45158983-4.61351761 37.71862953-12.34427923 54.55173506-22.94290227 19.26455634-12.03255443 30.29959271-23.19228073 35.22483653-28.80331636a34.53904193 34.53904193 0 0 0-52.05794344-45.3870448 96.32278029 96.32278029 0 0 1-19.82565962 15.64855537 106.67202346 106.67202346 0 0 1-57.54428777 17.02014181c-23.9404189 0-45.9481481-8.54124338-58.72884069-22.81821234a36.40938806 36.40938806 0 0 1-10.34924455-27.86814329c2.36910445-21.57131444 20.63614276-37.28221478 78.18043191-67.08304918l13.21710595-6.79558857c44.20249189-22.94290226 68.89105035-39.15256093 85.41243246-55.86097789 17.70593502-18.01765983 26.62124679-37.53159463 29.67614447-65.15035949 2.99255271-27.4940749-5.11227731-53.99063315-23.50400417-76.62180919a139.52775553 139.52775553 0 0 0-74.3150511-45.76111322l-5.17462228-1.30924284v-51.93325213a34.53904193 34.53904193 0 0 0-34.60138689-34.60138689z"  horiz-adv-x="1024" />

    
    <glyph glyph-name="remen" unicode="&#59543;" d="M512-47.34837113000003c-101.17398747 0-196.32780237 41.08914703-267.81005939 115.66916292-71.59915382 74.5800159-110.93485264 173.70831443-110.93485263 279.14902756 0 41.08914703 5.96172545 81.24312089 17.70983245 119.35140583 11.68965729 37.99138814 28.8734541 73.06036131 51.0253561 104.21329925l1.87034501 2.45482774 4.26672435 5.0850007c40.44621588 47.69380362 63.70863495 87.78933038 73.11880972 126.24830444 2.57172455 10.28689821 5.84482865 38.98500841 9.29327794 80.71708656l2.39638064 29.86707565 28.8734541-0.87672475c27.70448863-0.81827634 46.11569932-2.16258702 57.8638063-4.26672435 60.61087606-10.63758863 115.72761133-39.16035361 159.68072492-82.41208766a301.30092827 301.30092827 0 0 0 84.45777659-156.81675833l3.74069131-19.05414184 7.71517365 17.70983115c5.90327705 13.44310679 10.57914022 27.52914342 13.79379591 41.84897496 1.75344821 7.77362206 4.73431157 21.80121158 8.65034682 40.50466429l8.4165532 40.21242227 35.30276678-18.58655589c22.03500521-11.6312089 36.53018065-20.3984525 45.58966498-27.58759183a376.46542818 376.46542818 0 0 0 143.54899807-296.39127277c0-106.25898945-39.33569882-206.03021785-110.81795583-280.96092416-71.3069118-74.87225791-166.4022783-116.07830174-267.75161099-116.07830174z"  horiz-adv-x="1024" />

    
    <glyph glyph-name="remen1" unicode="&#59544;" d="M512-47.34837113000003c-101.17398747 0-196.32780237 41.08914703-267.81005939 115.66916292-71.59915382 74.5800159-110.93485264 173.70831443-110.93485263 279.14902756 0 41.08914703 5.96172545 81.24312089 17.70983245 119.35140583 11.68965729 37.99138814 28.8734541 73.06036131 51.0253561 104.21329925l1.87034501 2.45482774 4.26672435 5.0850007c40.44621588 47.69380362 63.70863495 87.78933038 73.11880972 126.24830444 2.57172455 10.28689821 5.84482865 38.98500841 9.29327794 80.71708656l2.39638064 29.86707565 28.8734541-0.87672475c27.70448863-0.81827634 46.11569932-2.16258702 57.8638063-4.26672435 60.61087606-10.63758863 115.72761133-39.16035361 159.68072492-82.41208766a301.30092827 301.30092827 0 0 0 84.45777659-156.81675833l3.74069131-19.05414184 7.71517365 17.70983115c5.90327705 13.44310679 10.57914022 27.52914342 13.79379591 41.84897496 1.75344821 7.77362206 4.73431157 21.80121158 8.65034682 40.50466429l8.4165532 40.21242227 35.30276678-18.58655589c22.03500521-11.6312089 36.53018065-20.3984525 45.58966498-27.58759183a376.46542818 376.46542818 0 0 0 143.54899807-296.39127277c0-106.25898945-39.33569882-206.03021785-110.81795583-280.96092416-71.3069118-74.87225791-166.4022783-116.07830174-267.75161099-116.07830174zM348.16944625 743.7492173c-2.68862135-26.47707476-5.14344911-44.36225111-7.71517366-54.64914932-11.9234509-48.51207995-39.45259433-96.96571152-86.44501969-152.49158558l-3.62379322-4.20827725-0.17534522-0.23379361c-36.06259472-51.20070131-55.9350129-116.83812969-55.93501289-184.69659219 0-182.76779877 142.4969281-331.40179753 317.72489843-331.40179754 175.11107351 0 317.60800161 149.68606741 317.60800161 333.56438457a313.16593205 313.16593205 0 0 1-113.56502558 241.099191l-7.18913934 6.02017386-2.45482773-9.29327795c-7.48138134-28.46431658-18.99569342-55.52587407-34.30914652-80.36639744-9.11793274-15.02120979-25.60035002-33.31552496-51.90207957-57.7469095l-49.03811428-45.58966498-1.92879342 68.26760131a1856.31765211 1856.31765211 0 0 0-0.81827635 40.32931908 239.22884601 239.22884601 0 0 1-198.95797532 235.25436237 145.9453774 145.9453774 0 0 1-14.90431298 1.81189791l-5.84482993 0.40913751-0.52603434-6.07862225z"  horiz-adv-x="1024" />

    
    <glyph glyph-name="xiangji" unicode="&#59567;" d="M856.60745728 667.83950226h-145.81021506l-66.24748188 67.50777435v0.10958954l-13.20566055 13.47963746H392.71069559l-13.20566055-13.47963746v-0.10958954L313.25755316 667.83950226H167.44733689c-43.94580682 0-79.50793781-36.32926508-79.50793782-81.09700013v-486.52720901c0-44.82253164 35.562131-81.09700013 79.50793782-81.09700134h689.16012039c43.94580682 0 79.50793781 36.2744697 79.50793781 81.09700134V586.74250213c0 44.76773627-35.562131 81.09700013-79.50793781 81.09700013z m-334.68951332-510.52753715a177.48188153 177.48188153 0 1 0 0 354.90896888 177.5366769 177.5366769 0 1 0 0-354.90896888z m268.44203144 321.31946784a40.21972841 40.21972841 0 0 0-39.78136659 40.54849946c0 22.41126582 17.75366721 40.54850067 39.78136659 40.54850067 21.91810864 0 39.78136659-18.19203023 39.78136661-40.54850067 0-22.41126582-17.86325796-40.54850067-39.78136661-40.54849946zM521.91794396 334.79384662999996m-118.30299003 0a118.30299003 118.30299003 0 1 1 236.60598006 0 118.30299003 118.30299003 0 1 1-236.60598006 0Z"  horiz-adv-x="1024" />

    
    <glyph glyph-name="xiangji1" unicode="&#59568;" d="M856.60745728 19.063496389999955H167.44733689c-43.94580682 0-79.50793781 36.2744697-79.50793782 81.09700135V586.74250213c0 44.76773627 35.562131 81.09700013 79.50793782 81.09700013h145.81021627l66.24748188 67.50777435v0.10958954l13.20566055 13.47963746h238.57860882l13.20566055-13.47963746v-0.10958954l66.24748188-67.50777435h145.81021627c43.94580682 0 79.50793781-36.32926508 79.50793782-81.09700013v-486.52720901c0.05479538-44.87732702-35.50733563-81.15179551-79.45314365-81.15179673z m26.52091187 567.67900574a26.84968292 26.84968292 0 0 1-26.52091187 27.06886322h-172.33112573l-13.20566055 13.47963624v0.05479538l-66.24748187 67.50777435H419.17681087L352.98412438 627.34579697v-0.10958955l-13.26045593-13.42484207H167.44733689a26.84968292 26.84968292 0 0 1-26.52091066-27.06886322v-486.52720901a26.84968292 26.84968292 0 0 1 26.52091066-27.06886444h689.16012039a26.84968292 26.84968292 0 0 1 26.52091187 27.06886444V586.74250213zM790.3599754 478.63143295a40.21972841 40.21972841 0 0 0-39.78136659 40.54849946c0 22.41126582 17.75366721 40.54850067 39.78136659 40.54850067 21.91810864 0 39.78136659-18.19203023 39.78136661-40.54850067 0-22.41126582-17.86325796-40.54850067-39.78136661-40.54849946z m-268.44203144-321.31946784a177.48188153 177.48188153 0 1 0 0 354.90896888 177.5366769 177.5366769 0 1 0 0-354.90896888z m0 295.78487155a118.35778541 118.35778541 0 1 1 0-236.7155696 118.35778541 118.35778541 0 0 1 0 236.7155696z m0 0"  horiz-adv-x="1024" />

    
    <glyph glyph-name="Chat" unicode="&#59140;" d="M872 221.42999999999995V684a30 30 0 0 1-30 30H182c-16.53 0-30-13.44-30-30v-626.31l136.86 119.01a60.18 60.18 0 0 0 39.36 14.73H842a30 30 0 0 1 30 30zM842 774c49.62 0 90-40.38 90-90v-462.57c0-49.62-40.38-90-90-90H328.22l-136.83-119.01a59.58 59.58 0 0 0-43.56-14.58A60.09 60.09 0 0 0 92 57.690000000000055V684c0 49.62 40.38 90 90 90h660z m-191.79-236.79a30 30 0 1 0 0-60H344.84a30 30 0 0 0 0 60h305.4z m-123.54-139.29a30 30 0 1 0 0-60h-181.8a30 30 0 0 0 0 60h181.8z"  horiz-adv-x="1024" />

    
    <glyph glyph-name="Chat1" unicode="&#59141;" d="M838.4 202.24A366.528 366.528 0 0 1 896 400C896 602.912 730.944 768 528 768 325.088 768 160 602.912 160 400S325.088 32 528 32a366.08 366.08 0 0 1 143.552 29.024c4.928 2.112 10.24 2.848 15.616 2.368l157.12-15.584-10.784 134.656a31.904 31.904 0 0 0 4.896 19.776zM960 400a430.4 430.4 0 0 0-61.888-222.912l12.992-162.336a31.936 31.936 0 0 0-35.04-34.432l-187.232 18.592A429.92 429.92 0 0 0 528-32C289.792-32 96 161.76 96 400 96 638.208 289.792 832 528 832S960 638.208 960 400z m-257.216 128a32 32 0 1 0 0-64H352a32 32 0 1 0 0 64h350.784z m-77.952-160a32 32 0 1 0 0-64H416a32 32 0 1 0 0 64h208.832z"  horiz-adv-x="1024" />

    
    <glyph glyph-name="Chat2" unicode="&#59142;" d="M838.4 202.24A366.528 366.528 0 0 1 896 400C896 602.912 730.912 768 528 768S160 602.912 160 400 325.088 32 528 32a365.76 365.76 0 0 1 143.52 29.024c4.96 2.08 10.272 2.848 15.648 2.368l157.088-15.584-10.784 134.656a31.904 31.904 0 0 0 4.928 19.776zM960 400a430.72 430.72 0 0 0-61.888-222.912l12.992-162.336a31.936 31.936 0 0 0-35.04-34.432l-187.232 18.592A429.92 429.92 0 0 0 528-32C289.76-32 96 161.76 96 400 96 638.2080000000001 289.76 832 528 832 766.208 832 960 638.2080000000001 960 400zM368 448a48 48 0 1 0 0-96 48 48 0 0 0 0 96z m160 0a48 48 0 1 0 0-96 48 48 0 0 0 0 96z m160 0a48 48 0 1 0 0-96 48 48 0 0 0 0 96z"  horiz-adv-x="1024" />

    
    <glyph glyph-name="search-1" unicode="&#59156;" d="M96 480C96 656.32 239.68 800 416 800c176.352 0 320-143.68 320-320 0-88.32-35.84-168.32-93.76-226.24A318.88 318.88 0 0 0 416 160C239.68 160 96 303.68 96 480m886.72-521.28l-273.6 273.6C766.08 299.2 800 385.6 800 480c0 211.84-172.16 384-384 384S32 691.84 32 480s172.16-384 384-384c94.4 0 180.8 33.92 247.68 90.88l273.6-273.6c6.4-6.08 14.4-9.28 22.72-9.28 8.352 0 16.352 3.2 22.72 9.28 12.512 12.48 12.512 32.96 0 45.44"  horiz-adv-x="1024" />

    
    <glyph glyph-name="User" unicode="&#59160;" d="M512 384c52.8 0 96 43.2 96 96s-43.2 96-96 96c-52.768 0-96-43.2-96-96s43.232-96 96-96z m0 256a160.032 160.032 0 0 0 0-320c-88.32 0-160 71.68-160 160s71.68 160 160 160z m285.792-558.08A414.432 414.432 0 0 1 928 384c0 229.44-186.56 416-416 416S96 613.44 96 384c0-118.72 49.952-226.24 130.272-302.08 4.8 39.04 19.84 72 44.8 98.56C318.432 231.36 397.12 256 512 256c114.912 0 193.632-24.64 240.992-75.52 24.96-26.56 40-59.52 44.8-98.56z m-62.4-48.64v0.96c3.168 44.48-6.4 78.08-29.12 102.72C672 173.44 606.72 192 512 192c-94.72 0-160-18.56-194.208-55.04-22.72-24.64-32.352-58.24-29.12-102.72v-0.96A414.016 414.016 0 0 1 512-32c81.952 0 158.72 24 223.392 65.28zM512 864c264.672 0 480-215.36 480-480s-215.328-480-480-480C247.392-96 32 119.36 32 384S247.392 864 512 864z"  horiz-adv-x="1024" />

    
    <glyph glyph-name="jiesuanguanli" unicode="&#58892;" d="M512 820.90666667C270.73043001 820.90666667 75.09333333 625.26956999 75.09333333 384s195.63709667-436.90666667 436.90666667-436.90666667 436.90666667 195.63709667 436.90666667 436.90666667S753.26956999 820.90666667 512 820.90666667z m145.63555555-342.72900779v-72.81777778h-109.22666666v-72.81777777H657.63555555v-72.81777778h-109.22666666v-106.31395556h-72.81777778v106.31395556H366.36444445v72.81777778h109.22666666v72.81777777H366.36444445v72.81777778h66.50690332L356.65540779 614.5896300100001h83.49771776L512 485.70216334l72.0896 128.88746667h83.4977189l-76.21594112-136.41197113H657.63555555z"  horiz-adv-x="1024" />

    
    <glyph glyph-name="xiaoxizhongxin" unicode="&#58977;" d="M874.63253333 114.57422222000002L803.27111111 242.49078556999996V408.27259221c0 123.54749667-78.15774777 229.61872555-187.38441444 271.61031112v0.24272668c3.15543666 9.95176334 5.09724445 20.38897778 5.09724445 31.55436999 0.24272555 60.43875555-48.54518557 109.22666667-108.98394112 109.22666667s-109.22666667-48.78791111-109.22666667-109.22666667c0-11.16539221 2.18453333-21.60260779 5.09724445-31.55436999v-0.24272668C296.70210333 636.1922366599999 220.72888889 524.05285888 220.72888889 399.29173333v-154.61641443L149.12474112 114.57422222000002c-11.4081189-20.87443001 3.64088889-46.11792555 27.18530333-46.11792555h164.08272554c25.00076999-70.63324445 92.23585223-121.36296334 171.36450446-121.36296334s146.36373333 50.7297189 171.36450333 121.36296334h164.08272555c24.02986667 0 39.07887445 25.48622222 27.42803 46.11792555zM478.50382222 697.35916999c-1.94180779 4.36906667-2.91271111 9.22358557-2.91271111 14.32083001 0 20.14625223 16.26263666 36.40888889 36.40888889 36.40888889a36.36034333 36.36034333 0 0 0 33.49617778-50.48699222c-10.92266667 1.21363001-22.08805888 1.94180779-33.25345223 1.94180666-9.46631111 0-19.17534777-0.48545223-28.88438443-1.45635556l-4.8545189-0.72817778zM512 19.91111110999998c-36.89434112 0-70.3905189 18.93262222-90.29404445 48.54518556h180.5880889c-19.90352555-29.61256334-53.39970333-48.54518557-90.29404445-48.54518556z"  horiz-adv-x="1024" />

    
    <glyph glyph-name="xiaoxizhongxin1" unicode="&#58978;" d="M874.63253333 114.57422222000002L803.27111111 242.49078556999996V408.27259221c0 124.76112555-79.85683001 231.80325888-190.78257778 272.82394112 1.21363001-0.48545223 2.42725888-0.72817778 3.39816334-0.97090332 3.15543666 9.95176334 5.09724445 20.38897778 5.09724445 31.55436999 0.24272555 60.43875555-48.54518557 109.22666667-108.98394112 109.22666667s-109.22666667-48.78791111-109.22666667-109.22666667c0-11.16539221 2.18453333-21.60260779 5.09724445-31.55436999 1.6990811 0.72817778 3.39816334 0.97090333 5.09724444 1.6990811C299.12936334 639.34767445 220.72888889 525.99466667 220.72888889 399.29173333v-154.61641443L149.12474112 114.57422222000002c-11.4081189-20.63170333 3.64088889-46.11792555 27.18530333-46.11792555h164.08272554c25.00076999-70.63324445 92.23585223-121.36296334 171.36450446-121.36296334s146.36373333 50.7297189 171.36450333 121.36296334h164.08272555c24.02986667 0 39.07887445 25.48622222 27.42803 46.11792555zM512 748.08888889a36.36034333 36.36034333 0 0 0 33.49617778-50.48699222c0.24272555 0 0.72817778-0.24272555 0.97090332-0.24272668-11.16539221 1.21363001-22.57351111 2.18453333-34.22435555 2.18453334-9.46631111 0-19.17534777-0.48545223-28.88438443-1.45635556l-5.33997113-0.72817778c0.24272555 0 0.48545223 0 0.72817778 0.24272668-1.94180779 4.36906667-2.91271111 9.22358557-2.91271111 14.32082888C475.59111111 731.82625223 491.85374777 748.08888889 512 748.08888889z m73.30323001-58.25422222c-1.94180779 0.48545223-4.12634112 1.21363001-6.06814891 1.6990811 1.94180779-0.48545223 3.88361443-1.21363001 6.06814891-1.6990811z m-140.29558556 1.45635555l-5.33997-1.45635555c1.6990811 0.72817778 3.39816334 0.97090333 5.33997 1.45635555zM512 19.91111110999998c-36.89434112 0-70.3905189 18.93262222-90.29404445 48.54518556h180.5880889c-19.90352555-29.61256334-53.39970333-48.54518557-90.29404445-48.54518556z m171.36450333 121.36296334H247.18601443l37.6225189 68.20598443 8.98085888 16.50536334V399.29173333c0 116.2657189 86.41043001 215.54062222 196.608 226.46328889 7.28177778 0.72817778 14.56355555 0.97090333 21.84533334 0.97090333 120.39205888 0 218.45333333-98.06127445 218.45333333-218.45333334v-184.71442887l9.22358557-16.50536334L776.57125888 141.27407444999994h-93.20675555z"  horiz-adv-x="1024" />

    
    <glyph glyph-name="jiesuanguanli1" unicode="&#58979;" d="M512 820.90666667C270.73043001 820.90666667 75.09333333 625.26956999 75.09333333 384s195.63709667-436.90666667 436.90666667-436.90666667 436.90666667 195.63709667 436.90666667 436.90666667S753.26956999 820.90666667 512 820.90666667z m0-800.99555556c-200.73434112 0-364.08888889 163.35454777-364.08888889 364.08888889S311.26565888 748.08888889 512 748.08888889s364.08888889-163.35454777 364.08888889-364.08888889-163.35454777-364.08888889-364.08888889-364.08888889zM584.0896 614.5896300100001L512 485.70216334l-72.0896 128.88746667h-83.4977189l76.45866667-136.41197113H366.36444445v-72.81777778h109.22666666v-72.81777777H366.36444445v-72.81777778h109.22666666v-106.31395556h72.81777778v106.31395556H657.63555555v72.81777778h-109.22666666v72.81777777H657.63555555v72.81777778h-66.50690332l76.45866667 136.41197113z"  horiz-adv-x="1024" />

    
    <glyph glyph-name="certificate" unicode="&#58980;" d="M906.715136 437.086208A401.88928 401.88928 0 0 0 910.222336 384c0-219.931648-178.290688-398.222336-398.222336-398.222336-219.931648 0-398.222336 178.290688-398.222336 398.222336 0 219.931648 178.290688 398.222336 398.222336 398.222336 61.83936 0 120.38656-14.09536 172.604416-39.24992l-24.68864-51.2512c-45.7216 22.023168-95.936512 33.611776-147.915776 33.611776-188.51328 0-341.332992-152.819712-341.332992-341.332992 0-188.51328 152.819712-341.332992 341.332992-341.332992 188.51328 0 341.332992 152.819712 341.332992 341.332992 0 15.353856-1.009664 30.5664-3.009536 45.574144l56.39168 7.512064zM673.942528 688.154624c-15.710208 0-28.444672 12.734464-28.444672 28.444672 0 15.709184 12.734464 28.443648 28.444672 28.443648 15.70816 0 28.443648-12.734464 28.443648-28.443648 0-15.710208-12.734464-28.444672-28.443648-28.444672z m204.68224-285.375488c-15.709184 0-28.444672 12.734464-28.444672 28.443648 0 15.710208 12.735488 28.444672 28.444672 28.444672s28.444672-12.734464 28.444672-28.444672c0-15.70816-12.735488-28.443648-28.444672-28.443648z m-531.217408 24.585216c-7.10144 7.090176-8.249344 18.11456-1.990656 26.005504l14.635008 18.448384c5.998592 7.563264 17.219584 9.46176 25.14944 4.16768l126.665728-84.54144c6.6816-4.45952 18.180096-3.878912 24.418304 1.18272l334.702592 271.543296c7.522304 6.10304 19.306496 5.582848 25.901056-1.001472l8.2432-8.23296c7.176192-7.163904 6.653952-18.536448-0.867328-26.046464L545.031168 270.18752c-11.17696-11.160576-29.52704-10.672128-41.03168 0.816128L347.406336 427.364352z"  horiz-adv-x="1024" />

    
    <glyph glyph-name="discount" unicode="&#58981;" d="M481.456128 9.6768l30.570496 19.454976 30.55616-19.479552c33.123328-21.117952 57.868288-27.111424 75.708416-22.330368 17.840128 4.780032 36.273152 22.34368 54.4 57.192448l16.744448 32.190464 36.248576-1.608704c39.21408-1.7408 63.629312 5.43744 76.70784 18.515968 13.078528 13.079552 20.257792 37.49376 18.516992 76.70784l-1.609728 36.2496 32.190464 16.743424c34.849792 18.126848 52.412416 36.559872 57.193472 54.4 4.780032 17.841152-1.21344 42.586112-22.331392 75.70944l-19.479552 30.555136 19.456 30.570496c21.121024 33.189888 27.12064 57.9584 22.35392 75.747328-4.765696 17.787904-22.345728 36.23936-57.233408 54.421504l-32.091136 16.724992 1.54624 36.154368c1.683456 39.334912-5.50912 63.797248-18.511872 76.8s-37.465088 20.195328-76.8 18.512896l-36.154368-1.54624-16.724992 32.090112c-18.182144 34.88768-36.6336 52.467712-54.421504 57.234432-17.788928 4.765696-42.55744-1.232896-75.747328-22.354944l-30.557184-19.446784-30.548992 19.459072c-33.15712 21.118976-57.914368 27.11552-75.728896 22.342656-17.813504-4.773888-36.255744-22.344704-54.411264-57.213952l-16.734208-32.140288-36.201472 1.57696c-39.274496 1.712128-63.71328-5.47328-76.75392-18.51392s-20.226048-37.4784-18.51392-76.75392l1.57696-36.217856-32.160768-16.729088c-34.849792-18.126848-52.412416-36.559872-57.193472-54.4-4.780032-17.840128 1.21344-42.585088 22.331392-75.70944l19.479552-30.554112-19.456-30.570496c-21.121024-33.190912-27.12064-57.959424-22.35392-75.748352 4.765696-17.78688 22.345728-36.23936 57.233408-54.421504l32.091136-16.724992-1.54624-36.154368c-1.683456-39.334912 5.50912-63.797248 18.511872-76.8s37.465088-20.195328 76.8-18.512896l36.154368 1.54624 16.724992-32.090112c18.182144-34.88768 36.6336-52.467712 54.421504-57.233408 17.788928-4.76672 42.55744 1.232896 75.747328 22.35392zM512-38.31808c-45.51168-28.962816-85.850112-38.733824-121.014272-29.310976-35.165184 9.422848-65.214464 38.052864-90.146816 85.892096-53.916672-2.307072-93.735936 9.40032-119.457792 35.1232-25.721856 25.720832-37.429248 65.540096-35.1232 119.456768-47.838208 24.932352-76.469248 54.981632-85.891072 90.146816-9.422848 35.16416 0.34816 75.502592 29.310976 121.014272-28.9792 45.45536-38.74816 85.792768-29.310976 121.015296 9.437184 35.221504 38.068224 65.26976 85.891072 90.145792-2.348032 53.874688 9.35936 93.693952 35.1232 119.457792 25.76384 25.76384 65.583104 37.471232 119.457792 35.1232 24.90368 47.83104 54.95296 76.46208 90.146816 85.891072 35.192832 9.43104 75.531264-0.339968 121.014272-29.310976 45.51168 28.962816 85.850112 38.733824 121.014272 29.310976 35.165184-9.421824 65.214464-38.05184 90.146816-85.891072 53.916672 2.306048 93.735936-9.401344 119.457792-35.1232 25.721856-25.72288 37.429248-65.54112 35.1232-119.457792 47.838208-24.932352 76.469248-54.981632 85.891072-90.145792 9.422848-35.165184-0.34816-75.503616-29.310976-121.015296 28.9792-45.45536 38.74816-85.792768 29.310976-121.014272-9.437184-35.222528-38.068224-65.270784-85.891072-90.146816 2.388992-53.832704-9.3184-93.651968-35.1232-119.457792-25.8048-25.8048-65.624064-37.512192-119.457792-35.1232-24.876032-47.822848-54.924288-76.453888-90.146816-85.891072-35.221504-9.437184-75.559936 0.3328-121.014272 29.310976zM627.142656 391.281664c25.03168 0 44.146688-8.646656 57.79968-26.851328 11.83232-15.473664 18.204672-36.409344 18.204672-62.350336 0-25.486336-6.372352-46.420992-18.204672-62.350336-13.652992-17.294336-32.768-26.396672-57.79968-26.396672-25.485312 0-45.056 9.10336-58.708992 26.396672-12.288 16.384-18.204672 36.864-18.204672 62.350336 0 25.940992 5.916672 46.876672 18.204672 62.350336 13.652992 18.204672 33.22368 26.851328 58.708992 26.851328z m-45.056 153.372672h37.31968L436.907008 206.96064h-36.864L582.086656 544.65536zM393.216 538.283008c25.030656 0 44.145664-8.64768 57.798656-26.852352 11.833344-15.47264 18.204672-36.40832 18.204672-62.349312 0-25.48736-6.371328-46.422016-18.204672-62.35136-13.652992-17.293312-32.768-26.395648-57.798656-26.395648-25.486336 0-45.056 9.102336-58.708992 26.396672-12.288 16.384-18.204672 36.864-18.204672 62.350336 0 25.940992 5.916672 46.875648 18.204672 62.349312C348.16 529.635328 367.72864 538.283008 393.216 538.283008z m233.926656-178.404352c-11.83232 0-20.48-5.915648-25.940992-17.748992-4.096-9.556992-5.916672-22.755328-5.916672-40.049664 0-16.384 1.820672-29.582336 5.916672-39.595008C606.662656 250.652672 615.31136 244.736 627.142656 244.736c11.378688 0 19.570688 6.371328 25.03168 18.659328 3.64032 9.558016 5.916672 22.300672 5.916672 38.684672 0 16.838656-2.276352 30.036992-6.372352 39.595008-5.005312 12.288-13.197312 18.203648-24.576 18.203648zM393.216 506.88c-11.833344 0-20.48-5.916672-25.940992-17.748992-4.096-9.558016-5.916672-22.756352-5.916672-40.049664 0-16.384 1.820672-29.58336 5.916672-39.595008C372.736 397.652992 381.382656 391.737344 393.216 391.737344c11.377664 0 19.569664 6.371328 25.030656 18.659328 3.641344 9.556992 5.916672 22.300672 5.916672 38.684672 0 16.838656-2.275328 30.036992-6.371328 39.593984-5.006336 12.288-13.198336 18.204672-24.576 18.204672z"  horiz-adv-x="1024" />

    
    </font>
</defs>
</svg>
